<?xml version="1.0" encoding="utf-8"?>
<!-- Generator: Adobe Illustrator 16.0.3, SVG Export Plug-In . SVG Version: 6.00 Build 0)  -->
<!DOCTYPE svg PUBLIC "-//W3C//DTD SVG 1.1//EN" "http://www.w3.org/Graphics/SVG/1.1/DTD/svg11.dtd">
<svg version="1.1"
	 id="Capa_1" xmlns:mapsvg="http://mapsvg.com" xmlns:svg="http://www.w3.org/2000/svg" xmlns:dc="http://purl.org/dc/elements/1.1/" xmlns:rdf="http://www.w3.org/1999/02/22-rdf-syntax-ns#" mapsvg:geoViewBox="-118.369112 32.716750 -86.725536 14.531518"
	 xmlns="http://www.w3.org/2000/svg" xmlns:xlink="http://www.w3.org/1999/xlink" x="0px" y="0px" width="792.418px"
	 height="497.543px" viewBox="0 0 792.418 497.543" enable-background="new 0 0 792.418 497.543" xml:space="preserve">
<path id="MX-AGU" fill="#B2B2B2" stroke="#848484" stroke-miterlimit="10" d="M390.528,309.792l-2.34-2.26l-0.07-1.21l1.24-2.87
	l3.33-4.59l0.93-3.239l1.07-0.73l1.79-0.38l3.47-1.97l1.211-0.92l0.389-1.262l0.73-0.17l0.77,1.391l1.33,1.34l4.439,2.631
	l0.592,2.439l1.139,2.04l0,0l0.26,0.591l-0.239,1.6l1.961,2.141l-4.279,1.971l-2.551,3.55l-0.722,0.5l-3.02,1.04l-1.26,0.061
	l-2.17-1.021l-1.74-1.409l-4.209-0.38L390.528,309.792z"/>
<path id="MX-BCN" fill="#B2B2B2" stroke="#848484" stroke-miterlimit="10" d="M106.488,137.853h-0.65l0,0l-0.76,0.12l0.13,0.44
	l-0.82,0.41l-0.68,0.01l-0.75,0.86l-0.29-0.74l0.19-0.78l3.08-3.76l0.62-0.15l0.061,0.97l-0.8,0.76l-0.02,0.521L106.488,137.853z
	 M79.138,125.862l0.561,0.45l0.75,2.86l-0.25,1.02l0.38,2.42l-0.68,0.899l0.04,2.09l-0.62-0.19l-0.54,0.33l-0.65-0.31l-0.6-1.42
	l-0.58-0.18l-1,0.6l-0.37-0.15l0.07-0.78l2.73-3.03l0.15-0.68l-0.58-1.61l0.51-1.89L79.138,125.862z M137.278,117.303l0.82,0.18
	l2.68,2.27l-0.54,0.47l-0.601-0.96l-1.689-0.95L137.278,117.303z M145.738,115.803l0.34,0.64l-0.271,1.02l-1.16,0.04l-0.35-1.56
	L145.738,115.803L145.738,115.803z M2.878,102.732l-0.64,1.32l0.15,1.03l1.31,1.2l0.229,2.9l-0.67,2.08l-0.75,0.229l-0.56-1.47
	l0.21-0.92l-0.56-0.37l-0.07-1.6l-1.24-1.24l0.35-1l-0.29-0.96l0.74-0.62l0.8,0.04L2.878,102.732z M120.658,92.442l-0.021,0.48
	l1.101-0.48l0.02,0.32l0.93,0.26l1.27,1.64l0.77,0.39l1.06,2.21l-0.59,0.86l0.12,1.17l1.84,0.83l2.9-0.18l0.34,0.3l-0.17,4.33
	l0.62,1.71l1.2,0.37l-0.34,1.9l-2.96-2.09l-1.72-2.42l-2.56-1.82l-0.96-1.88l-1.37-0.26l-0.24-1.09l-2.04-2.47l-0.16-0.86l0.77-1.87
	l-0.21-0.98L120.658,92.442z M99.108,79.913l0.64,0.81l-0.45,0.14l-0.34-0.36L99.108,79.913z M89.188,6.862l-0.85,0.51l-0.47-0.4
	l-1.34,0.01l-0.6,2.05l-0.47,0.479l-0.05,1.34l-1.81,2.43l1.4,1.99l-0.62,1.83l0.29,1.14l-0.42,2.67l0.24,0.98l-0.6,0.98l0.96,0.95
	l0.92,0.13l3.82,2.76l0,0l-0.47,1.74l0.92,4l-1.12,1.46l-0.74,2.41l-0.08,3.53l-0.85,3.16l0.3,0.65l-0.25,2.22l0.62,2.21l1.37,1.26
	l-0.521,0.66l-0.02,0.65l2.84,1.84l0.59,3.53l-0.08,5.21l1.72,4.04l0.02,2.21l-0.35,1.3l0.21,0.82l-0.521,1.95l0.37,0.33l-0.65,2.16
	l1,2.06l0.62,0.38l1.73,4l1.23,0.61l0.3,0.9l0.96,0.15l0.64,0.89l-0.02,1.82l0.45,0.94l0.82,0.32l0.44,0.72l1.17,0.12l0.34-0.86
	l1.81,0.78l1.21,1.54l0.31-0.06l0.96,1.18l0.939,0.48l0.68,1.13l1.62,0.83l2.09,2.34l1.52,0.83l0.11,0.61l1.439,0.689l1.98,2.47
	l1.44,1.17l0.3,0.88l-0.73,0.851l0.01,0.479l2.08,2.55l0.79,1.64l-0.58,1.16l0.45,1.64l-0.33,0.25l0.81,1.69l0.82,0.1l0.53-0.7
	l-0.41-0.38l0.42-0.62l0.48,0.27l0.47-0.36l0.41,0.8l0.6-0.12l-0.04,0.41l0.45,0.12l0.12,2.09l0.39,0.95l1.1-0.03l1.31-1.04
	l1.08,0.62l1.43,4.51l0.77,0.82l0.59,3.53l2.58,1.46l2.44-0.59l0.48,0.36l0.07,0.73l0.81-0.15l0.11,0.6l-0.36,0.48l0.25,0.66
	l-0.59,2.6l1.97,2.8l-0.47,2.03l0.62,1.45l-0.39,1.24l0.93,0.57l0.27,0.99l-0.3,2.49l0,0l-0.64-1.71l-0.87-0.26l0,0l-31.69-0.11
	l0.23-0.53l-0.35-0.49l-0.05-1.32l0.86,1.21l0.79-1.39l-1.61-0.41l-0.35-1.72l1.52-2.99l-0.42-0.96l-0.88,0.53l-0.51-0.49l1.28-2.91
	l0.65-3.16l-1.27-2.19l-1.562-0.63l-0.07-2.03l-0.44-0.43l-2.2-0.1l0.01-0.81l-0.45-0.52l-1.54-0.86l0.12-0.59l-0.46-1.17
	l-0.88-0.47l-0.56-1.87l-0.46-0.07l-0.23-0.6l-0.96-0.73l-0.97-0.07l-0.17,0.33l-0.52-1.09l-0.68-0.44l-0.229,0.3l-0.54-2.72
	l-0.64-1.05l-1.06-0.47l-0.64,0.34l-0.8-0.98l-0.25-1.35l-1.16-0.55l-0.12-0.37l-0.45,0.03l-3.43-4.21l-2.91-1.5l-3.061-0.4
	l-1.55-2.51l-2.41-1.18l-0.76-0.03l-2-1.92l-1.19,0.25l-2-2.17l-0.89-0.1l-1.88-1.56l0.25-2.521l-0.33-1.5l-1.14-1.62l-1.57-0.58
	l0.62-3.57l-0.54-1.2l0.02-4.19l-1.46-2.55l-2.06-1.24l0.19-1.4l-0.82-0.77l-0.23,0.4l0.5,0.94l-0.5,0.35l-0.46-0.7h-0.53l0.58,1.34
	l-0.31,0.1l-1.06-2.05l0.57-5.32l-0.63-3.55l-0.53-1.05l-0.6-0.08l-1.44-1.26l-0.53,0.01l-2.3-3.02l-1.55,0.2l-0.25-0.46l0.74-5.28
	l-1.38-2.71l-2.09-2.2l-1.85-3.14l-1.29-0.96l-0.68,0.08l-0.18-1l-1.27-0.92l-0.27-0.72l-0.41,0.08l-0.12-0.58l1.02-0.52l-0.44-0.9
	l0.47-1.24l-1.17-1.61l-0.33,0.14l-0.85-1l0.45-0.1l1.6,0.89l1.05-0.96l0.19-2.58l-0.4-0.61l-1.26-0.27l-0.57-0.771l-1.15-0.2
	l-0.41-1.83l-0.48-0.4h-1.23l-1.23-1.18l-0.12-3.02l-0.81-2.83l-0.47-0.75l-2.1-0.71l-0.48-0.56l-2.14-5.9l0.04-1.34l60.19-5.54
	l-1.58,2.83l-0.67,0.19l0.5,1.79l-0.35,0.24L89.188,6.862z"/>
<path id="MX-BCS" fill="#B2B2B2" stroke="#848484" stroke-miterlimit="10" d="M91.058,397.563l1.49,0.369l-0.48,0.42l-1.32,0.17
	l-0.12-0.729L91.058,397.563z M184.958,384.612l1.03,0.689l0.7,1.069l-0.01,1.761l-0.83,0.409l-0.44-0.688l-1.15-0.2l-0.81-1.311
	L184.958,384.612z M189.688,372.282l0.23,0.649l-0.46,0.66l-0.29-0.569L189.688,372.282z M211.418,237.132l2.79,4.59l0.44,1.91
	l-1.56-0.29l-0.71-1.05l-1.1-3.81L211.418,237.132z M159.938,232.992l3.12,0.16l1.11,1.44l0.94,0.11l0.81,0.62l1.33,2.43l-0.35,0.83
	l-6.92-5.03l-0.31-0.34L159.938,232.992z M200.668,232.752l1.77,1.59l-0.93,2.03l-0.54,0.03l0.04-0.83l-0.729-0.26l0.12-0.5
	l-0.46-0.58l0.18-0.67l-0.27-0.46L200.668,232.752z M199.808,231.172l0.87,1.34l-0.59,0.33l-0.62-0.36l-0.1-0.78L199.808,231.172z
	 M192.028,217.092l0.92,1.45l1.979,0.54l0.42,0.6l0.06,1.54l0.97,2.16l-0.47,0.09l-2.64-2.04l-0.68-2.02l-0.89-0.9L192.028,217.092z
	 M156.358,212.513l0.21,1.38l-1.1,3.4l0.11,3.08l-0.76,0.68l0.66,1.33l-0.33,1.14l-0.63,0.07l-0.31,0.53l0.16,0.72l1.14,1.271
	l-0.16,0.29l0.93,0.82l0.44,1.34l-0.67,1.1l0.92,0.78l1.25,1.81l-0.07,0.38l-1.06-0.54l-0.05-0.66l-1.78-1.9l0.19-0.53l0.57,0.08
	l0.22-0.54l-0.12-1.07l-0.8-0.98l-1.33-0.689l-1.22,0.37l-0.7-0.45l-0.04-0.58l0.41-0.08l1.95-5.17L156.358,212.513z
	 M192.428,211.382l-0.45,1.2l-0.52,0.24l-0.15-0.74L192.428,211.382z M157.198,206.452l-0.16,4.42l-0.37,1.37l-0.5-0.35
	L157.198,206.452z M157.258,201.252l0.16,2.08l-0.17,2.51l-0.28,0.01L157.258,201.252z M190.318,200.333l0.31,3.3l-0.71-0.44
	l-0.4-1.4L190.318,200.333z M183.778,200.292l0.54,1.25l-0.33,0.51l-0.41-0.2l-0.41-1.41L183.778,200.292z M183.118,190.513
	l-0.5,1.021l0.399,1.67l-1.2-0.74l-1.71,2.67v0.92l-0.56,0.55v0.68l-0.6,0.05l-0.13-0.76l0.4-0.45l0.18-1.68l1.05-1.74l-0.19-1.46
	l0.98-0.25l0.18-0.43l0.64,0.4L183.118,190.513L183.118,190.513z M177.928,188.623l0.18,0.79l-0.45,0.05l-0.17-0.54L177.928,188.623
	z M128.838,172.092l1.34,0.32l0.75,1.57l-0.96-0.63l-1.97-0.48l-0.12-0.28L128.838,172.092L128.838,172.092z M157.398,157.322
	l1.06,1l-0.34,1.22l-0.62-0.16l-0.5-1.41L157.398,157.322z M162.468,151.813l0.42,0.05l0.28,0.62l-0.93,0.04l-0.18-0.46
	L162.468,151.813z M79.128,139.413l1.37,0.75l-0.1,0.53l-1.37-1.02L79.128,139.413z M105.838,137.853h0.65l0,0l0.41,0.41l0.29-0.41
	l31.7,0.1l0,0l0.87,0.26l0.64,1.71l0,0l-0.07,0.5l1.29,1.03l0.399,1.96l1.08,1.29l0.42-0.04l1.23,1.7l2.78,0.86l0.54,0.62
	l0.94,0.149l1.61,1.11l0.71,0.96l0.7,3.73l1.64,1.81l0.97,2.21l-0.41,0.76l2.601,2.1l2.54,0.65l0.47,0.57l0.93-0.01l0.15,0.73
	l-0.57,0.03l-0.89,1.04l-0.23,1.58l1.68,2.42l0.9,0.46l0.04,0.46l0.92,0.66l0.33,1.37l-0.7,0.55l-0.47,1.29l1.17,0.73l0.29,1.17
	l1.08,0.66l0.69,1.69l1,0.75l1.55-1.38l-3.45-3.58l-0.23-2.91l-0.68-1.64l0.74-0.47l1.85,1.4l0.67,1.09l1.35,0.93l0.47,0.75
	l2.16,1.37l-0.19,3.51l0.35,0.56l2.72,0.85l-0.6,1.63l0.04,1.24l1.15,1.88l0.71,0.311l0.22,0.5l0.07,1.14l-0.35,0.66l1.98,5.16
	l-0.58,0.94l0.1,1.35l-0.52,0.72l0.11,0.99l0.45,0.58l0.08,1.92l0.63,0.67l0.04,1.05l1.8,1.47l0.22-0.17l0.8,3.11l1.84,2.4
	l2.56,0.31l-0.22,1.61l1.17,3.14l0.85,0.85l0.3,1.05l-0.3,0.17l0.38,1.53l0.62,0.81l-0.04,1l0.68,0.54l0.439,1.26l0.86,0.48
	l0.51,0.9l0.47-0.13l0.76,0.62l0.25,1.3l1.61,2.21l0.67,2.08l-0.17,1.19l-0.74,1.77l-0.87,0.93l-0.22,3.09l0.22,1.04l1.05,1.39
	l0.13,2.88l1.06,1.24l0.69,1.57l1.54,1.35l4.34,0.95l1.21-0.12l0.06,0.28l-1.28,0.5l-0.79-0.65l-0.42,0.25l0.21,1.46l1.68-0.13
	l-0.01-0.78l1.21-1.03l0.06-0.98l-0.91-2.2l0.28-1.07l0.71-0.45l1.561,0.21v0.78l1.06,0.62l0.42,1.12l2.15,0.99l2.06,1.58
	l0.71,3.229l1.2,0.3l2.6-0.88l0.04,0.58l0.53,0.49l-0.7,0.86l0.07,2.03l3.24,3.159l-0.28,1.97l0.311,1.69l0.39,0.47l5.38,2.631
	l-0.31,0.81l1.43,2.069l-0.22,0.69l0.42,0.431l-0.51,4.39l-0.59,1.261l-1.87,2.31l-1.04,0.721l-2.2,0.541l-1.21,0.818l-0.02,0.75
	l-2.07,1.141l-0.53,1.041l-0.94,0.738l-0.93,0.041l-0.64,0.67h-1.15l-2.42-2.01l-1.17-2.771l-1.46-7.101l-2.5-4.569l-1.83-2.439
	l-6.19-3.279l-11.64-11.53l-10.8-6.54l0.12-0.26l-1.16-1.24l-1.55-0.21l0.06-0.48l-0.64-0.07l-1.021-2.97l0.28-0.11l-0.47-0.58
	l-0.99-0.3l-0.1,1.14l-2.41-0.2l-0.061,0.75l-0.6-0.01l0.149-1.48l-0.729-2.01l-2.19-2.41l0.271-0.25l-0.561-0.5l-0.68,0.27
	l0.13,0.44l-1.46-0.24l-2.01-0.97l-0.31-0.69l0.54-0.03l0.11-0.76l-0.62-0.4l-0.17-0.78l0.65-0.97l-0.271-0.16l0.39-0.72l-0.44-0.13
	l0.24-0.45l-0.42-0.48l-0.57,0.92l0.29,0.76l-0.39,0.49l0.05,2.53h-0.73l-0.479-1.15l0.77-1.55l-0.649-1.39l0.81-0.45l0.74-1.67
	l0.02-0.96l-0.86,0.12l0.16-1.89l0.87-2.01l0.271-1.77l0.71-0.12l0.06-2.45l-0.5-0.11l0.061-1.17l0.58-0.44l-0.39-0.33l-0.21-1.07
	l0.3-1l0.3-0.05l0.13-2.41l-0.13-1.28l-0.8-1.07l-0.34-2.88l-2.03-5.36l-0.94-1.24l-1.93-1.06l-0.87-2.85l-1.64-1.94l-1.58-0.4
	l-0.19,0.66l-0.45,0.13l-3.19-2.33l-0.69-0.26l-0.67,0.28l-0.79-1.19l-1.979-1.4l0.01-0.44l-0.63-0.03l-3.59-2.96l0.97,0.09
	l1.27,0.94l0.13-0.24l-1.06-0.77l-1.08-0.32l-0.69,0.22l-2.27-1.979l0.19-0.19l-0.4-0.5l0.38-0.61l-1.729-2.07l-0.94-1.98
	l-0.36,1.05l-1.51-0.7l0.311-0.32l0.51,0.16l1.55-1.56l0.42-1.29l-0.82-2.81l-0.6,0.65l-0.38,3.22l-0.56,0.49l-0.7-0.23l-0.38,0.75
	l0.06,1.83l-0.45,0.05l-2.14-1.33l-1.51-0.26l0.21-0.53l0.54,0.39l0.07-0.38l-0.53-0.2l-1.44,0.22l-0.8,0.89l-0.39,1.19l-0.63,0.28
	l-0.01,0.58l-0.71,0.4l-0.82-0.26l-0.8-0.52l-0.7-1.41l-1.6-0.4l-1.61-3.69l-1.81-1.34l-2.21-0.57l-0.45,0.16l-0.18,0.55l-0.44,0.03
	l-1.28-1.34l-1.1-1.99l-1.08-0.8l-1.22-0.58l-2.021-0.3l-0.75,0.66l-2.43-1.55l-0.51,0.41l-0.48-0.26l0.06-0.8l-0.62-0.39
	l-0.53,0.11l-0.24-0.37l-0.02-3.521l-0.48-1.57l-2.35-1.91l-3.33-1.21l-1.15-2.25l-1.67-1.25l-0.07-1.021l-0.68-0.46l-0.62,0.95
	l-0.77-0.35l-0.31-0.91l-1.03-0.53l-0.561,0.27l-1.08-2.81l-0.79-0.78l0.8-0.41l1.06,0.91l2.33-0.22l1.52,0.23l0.36,0.5l1.37-0.18
	l1.62,0.3l0.46,0.49l1.58,0.33l2.77-0.23l0.59,0.35l2.44-1.32l0.6,0.35l0.76-0.15l0.15-0.6l-0.63-0.04l1.1-1.2l0.86,0.29l-0.52,2.48
	l0.76,1.26l1.5,1.2l1.27,0.37l1.35,1.2l-0.05,0.42l0.8,0.26l1.02-1.07l0.061-0.88l2.1,0.72l1.561,2.96l0.89,0.14l0.59-1.17
	l-1.57-1.62l0.12-1.05l0.67,0.65l0.15-0.41l-0.57-0.45l0.271-0.61l-0.46-1.74l0.229-0.9l-1.75-1.44l-1.03,1.89l0.189,1.14
	l-3.18,1.21l-1.64-1.24l0.24-0.54l0.6,0.5l-0.74-1.98l1.17-1.74l-0.54-0.48L105.838,137.853L105.838,137.853z"/>
<path id="MX-CAM" fill="#B2B2B2" stroke="#848484" stroke-miterlimit="10" d="M671.967,386.933l0.5,0.79l-0.68,0.609l-0.539,0.221
	l-1.062-0.569l-0.381,0.33l0.392,0.33l-1.66,1.34l-0.539-0.67l-0.291,0.579l-2.119,0.859l-1.09,0.101l-0.541-0.569l0.271-0.32
	l2.42-0.39L671.967,386.933L671.967,386.933z M700.668,333.473l-0.16,7.3l4.119,0.511l0.972,2.01l0.448,0.181l1.111-0.351
	l0.938,0.99l0.48-0.091l0.398-1.01l0.791-0.729l0.42,0.28l1.028,1.76l-0.108,0.91l0.569,1.039l1.83,1.171l1.979,4.46l3.861,2.101
	l1.17,2.489l3.17,3.58l0.789,3.439l0.44,0.46l0,0l1.34,1.811l5.3,4.25l3.409,4.67l-0.18,5.851l-1.17,0.659l-0.41,0.671l0.221,2.521
	l-0.801,5.13l0.17,1.271l0.99,1.239l0.149,0.711l-0.51,1.369l0.82,0.46l-0.57,1.671l0.469,1.38l0.281,4.699l-0.569,1.261
	l-2.439,2.83l0.25,2.46l0,0l-0.021,3.329l-45.939-0.01l0,0l0.02-1.641l-3.979-1.58l-0.682,0.421l-0.771-0.899l-1.561-0.66
	l-1.64-1.551l-3.649-0.8l-2.791,0.13l-0.3,1.301l0.341,1.819l-0.302,0.72l-1.68,0.11l-1.289,0.64l-2.211-1.119l-1.5,0.149
	l-1.309-0.66l-0.871-1.43l-3.471-2.33l-1.22-1.83l-1.08-2.59l-0.45-0.319l0.182-1.971l-1.111-1.42l-0.358-0.16l-0.08,0.42
	l-0.529,0.131l-0.69-1.061l-0.99-0.051l-1.439-1l-0.629-0.91l-1.141-3.72l0,0l3.131-0.561l9.828-0.609l0.881,1.41l1.49,0.8
	l-0.601,1.18l-0.271-0.39l-0.31,0.34l-0.961-1.279l-0.729,0.851l-0.681-0.421l-0.239,0.181l0.17,0.721l-0.449,0.569l0.59,0.739
	l1.15-0.25l-0.449-1.119l0.789,0.039l0.279,0.461l0.569-0.141l1.101,0.72l0.16,0.562l6.791,1.67l1.43-0.131l0.16-0.699l0.729-0.7
	l4.449-1.529l0.819-2.921l0.63-0.318l0.352-1.32l-0.229-0.7l-1.101-1l-0.92,0.72l-1.149-0.608l-0.291-0.98l0.61-0.47l-0.069-0.79
	l0.969-1.04l-0.771,0.189l-0.698,1.33l-0.761,0.721l-0.521-0.051l-0.818,0.761l-0.121,0.56l-0.629,0.03v-0.24l2.5-2.569l6.809-3.66
	l4.791-3.449l4.859-4.53l0.471-0.93l-0.08-1.021l0.521-2l-0.211-2.17l0.672-1.8l-0.512-0.561l-0.039-0.641l0.93-1.14l0.189-1.03
	l3.852-2.859l1.408-2.479l-0.979-2.71l0.3-1.37l-0.41-1.279l0.381-0.291l-0.391-4.479l0.301-0.78l-0.451-3.398l1.342-3.562
	l0.439-3.02L700.668,333.473L700.668,333.473z"/>
<path id="MX-CHP" fill="#B2B2B2" stroke="#848484" stroke-miterlimit="10" d="M607.458,458.003l0.18-0.641l0,0l-0.059-0.41
	l0.398,0.01l0.762,1.15L607.458,458.003z M607.088,453.992l-0.01-0.78l0,0l-0.121-2.119l0.521-1.449l-1.25-2.932l0.08-0.85
	l2.19-6.28l2.938-2.62l0.802-3.489l0.76-1.021l-0.021-2l0.34-0.939l0,0l0.94-1.13l1.949-0.86l3.721-2.89l0,0l2.529-3.171
	l0.062-1.609l1.391-1.869l1.199-0.79l0.59-1.16l0.75-7.08l1.66-0.279l0.539-0.61l2.141,0.851l1.391,1.69l0.771,0.35l2.791-0.09
	l-0.353,1.689l-1.42,2.12l-0.139,0.58l0.379,0.931l2.07,2.18l-0.301,1.87l0.36,0.329l1.25-0.06l0.439-0.351l0.541,0.199l1.209,1.939
	l0.041,0.66l0.658,0.87l0.811,0.311l1.91-0.841l2.42-2.25l5.83-4.27l0.569-0.83l3.289-1.189l0.392-0.78l-0.41-1.75l0.121-0.37
	l0.43,0.08l-0.041-0.439l1.771,0.479l1.948-0.029l0.709-1.841l1.451,0.37l-0.121,0.591l0.562,0.3l0.59-0.439l1.191,0.181l1.209-0.28
	l1.061,1.359l0.049,2.011l2.562,1.26l1.27,3.301l-0.75,2.659l4.34,1.2l0.191,0.83l1.309,0.369l1.103,1.791l-0.763,0.279
	l-0.528,1.029l0,0l-0.65,0.061l0.57,0.979l0.76-0.04l0.98,1.12l0.829-0.351l0.931,0.311l-0.021,0.83l0.529,0.74l0.631,0.26
	l0.33,0.96l1.119,1.16l1.051,0.229l0.299,1.029l1.381,1.37l0.109,0.64l1.34,0.4l0.531,0.619l0.271-0.289l1.1,0.439l0.24,0.85h1.028
	l0.881,0.721l1.132-0.08l0.039,0.551l2.141,1.25l1.379,2.18l0.351,3.221l0.819-0.101l0.111,0.55l-0.67,0.23l0.229,0.399l0.761-0.341
	l0.36,0.511l0.879-0.311l0.57,0.63l0.57-0.279l0.528,0.66l-0.147,0.489h1.709l0.381,0.59l0.119,0.58l-0.359,0.351l0.341,0.529
	l-0.33,0.881l-0.541,0.039l-0.181,0.641l0.361,0.351l-0.771,1.62l0.802,1.061l-0.67,0.439l0.561,0.29l-0.021,0.409l-0.639-0.05
	l0.271,1.36l-32.142-0.271l-12.25,21.069l3.871,5l-1,1.601l-0.85-0.091l-0.353,0.721l0.132,2.489l-1.052,1.381l0.92,4.289
	l-0.729,1.171l-0.381,1.54l-0.859,0.71l-4.461-4.061l-10.99-11.58l-0.1-0.851l-0.799-0.189l-11.16-10.521l-5.441-4.29l-6.08-4.22
	l-3.817-1.841l0.279-0.399l0.75-0.061l0.288,0.609l0.632-0.271l0.141-0.479l-1.121-1.84l-4.66-1.01l-0.729-0.91L607.088,453.992
	L607.088,453.992z"/>
<path id="MX-CHH" fill="#B2B2B2" stroke="#848484" stroke-miterlimit="10" d="M375.248,107.482l-2.26,4.16l0.02,0.35l1.71,0.61
	l0.01,1.04l-0.66,0.98l-0.84-0.32l-0.7,0.34l-1.73,4.01l-1.41,1.11l-1.64,0.61l-2.271,3.78l-0.56,1.1l0.87,1.42l-0.94,1.38
	l-2.66,6.811l-0.6,0.38l-1.77-0.71l-0.01,1.55l1.12,0.18l0.49,1.46l-0.34,0.479l-1.9,0.38l0.76,1.44l-0.06,0.83l-0.57,0.82
	l0.72,0.78l0.14,0.72l-1.09,1.16l0.81,4.52l1.13,0.5l0.24,0.83l0.09,1.06l-0.479,1.14l0.68,3.68l0.22,4.82l0.54,0.68l1.83,0.79
	l-0.41,1.54l-1.15,0.04l-1.07,1l-1.92,0.91l0.44,0.8l-0.1,1.31l2.15,1.9l1.08,1.83l0,0l-1.1,0.24l-1.15-0.86l-0.51,0.68l-0.28-0.17
	l0.44-0.72l-0.79-0.12l-3.21,1.05l-1.51-0.57l-0.88,0.81l-1.43-0.28l-0.68-1l-1.43-0.24l-1.38-0.89l-0.73,0.32l-0.31,0.74
	l0.479,0.66l1.54,0.12l-0.07,1l-2.5,0.39l-1.15,1.52l-1.51,0.54l-1.891,3.08l0.24,1.34l-0.25,0.77l-0.44,0.24l-1.71-0.2l-1.74,0.91
	l-0.98-0.21l-1.72-1.19l-1.95-1.89l-2.54,0.24l-1.22-0.33l-0.74-0.68l-0.54-0.04l-0.01,1.08l-1.6,0.7l-0.52,0.58l-0.57,0.09
	l-0.41-0.54l-1.68,0.96l-0.229-0.6l-1.561-0.47l-1.27,0.25l-1.101-1.89l-1.64,0.29l-0.76-1.09h-0.98l-1.58-1.36l-1.938-0.23
	l-0.28-0.58l-1.26-0.71l-0.96-1.94l-1.062-0.23l-1.91-1.23l-1.27-0.06l-0.67-0.89l-0.77,0.54l-0.21,1.29l-1.76,0.57l0.05,1.84
	l-0.63,0.47l-0.9,3.39l0.03,1.6l-0.898,1.53l0.148,0.46l1.12,0.5l-0.03,1.07l-0.33,0.58l-1.98,0.87l-0.86,0.87v1.36l-1-0.16
	l-0.41,0.36l0.36,2.14l-0.92,0.26l-1.72,3.99l0.97,1.56l0.61,1.9l-2.12,3.42l-3.53,2.72l-1.23,1.61l-0.64-0.28l-0.67-1.21
	l-2.01-0.33l-0.52-0.86l-1.6,0.22l-1.08-0.66l-0.31-1.32l-2.31,0.78l-0.32,0.65l0,0l-2.14-2.79l-0.59-3.229l-2.89-4.89l-2.36-0.69
	l-3.19-0.31l-3.81-1.13l-1.22-4.68l-3.11-5.02l-0.07-1.88l-1.42-0.92l-0.32-1.09l0.49-2l-0.49-0.82l0.4-2.27l-1.06-2.33l-1.22,0.25
	l-0.61-0.24l-0.12-2.9l-0.68-0.38l-4.89,0.22l0,0l-1.76-0.39l-2.02,0.62l-3.54-1.84l0.02-0.46l0.73-0.42l-0.48-3.44l1.25-3.14
	l-0.04-1.72l-1.63-4.07l-0.97-1.43l-0.63-2.09l-2.81-1.7l-0.52-0.65l0.7-2.45l-0.38-1.66l-2.09-2.98l-1.82-0.74l-0.39-0.69
	l0.59-2.76l-1.56-1.07l-0.19-0.61l1.04-1.39l2.53-0.49l1.45-0.85l0.77,0.14l1.771,1.31l0.5-0.03l1.41-1.05l1.14-0.12l0.97-1.22
	l0.93-0.09l0.6-1.189l-2.25-0.86l-1.55-1.81l0.42-2.9l-0.83-1.95l0.19-1.04l1.48-2.62l-0.8-2.65l0.84-1.28l-0.46-2.55l1.49-1.26
	l0.1-2.69l1.38-0.67l0.29-0.51l-0.26-5.67l0.16-0.9l0.8-0.95l0.01-2.6l-0.66-6.22l-0.75-0.96l-0.57-0.02l-0.34-1l0.59-4.93
	l1.27-2.57v-1.11l-1.45-1.33l-0.16-0.99l0.85-0.521l0.28-1.82l-1.94-6.15l0.06-1.19l-1.1-1.46l-0.11-0.81l0.67-1.61l-1.04-0.93
	l-0.09-2.42l-2.73-2.65l0.04-0.61l1.57-0.08l-0.02-1.81l0.49-1.271l-0.24-1.6l-1.64-2.84l-0.521-1.92l0.94-1.28l-1.05-1.04l0,0
	l14.1-0.04V27.78h42.05l1,1.07l1.59-0.13l1.01,0.561l0.87,1.03l1.75,4.03l0.76,0.41l1.13,2.37l3.2,1.96l1.81,0.18l1.25,0.8
	l0.59,1.48l0.57-0.01l0.37,0.66h0.52l2.18,2.66l0.25,0.84l1.28,0.45l0.41,0.57l1.5,0.59l1.16,1l1.21,2.71l1.2,0.58l0.36,0.76
	l1.87,1.18l0.55,0.899l-0.17,0.47l0.98,0.16l1.46,1.01l0.28-0.37l0.91,0.87l0.89-0.25l0.21,0.62l0.4-0.23l0.56,0.66l0.42,0.01
	l-0.11,0.44l1.2,0.19l0.8,1.35l0.85,0.53l0.91-0.14l0.57,0.73l0.25,1.3l1.15,0.43l0.85,1.02l0.76,2.12l0.02,1.46l0.46,0.75
	l-0.19,0.85l1.11,0.73l-0.22,0.33l1.52,1.59l-0.08,0.53l1.36,1.1l0.46,1.59l-0.16,1.5l0.28,1l-0.49,2.07l0.36,0.21l-0.04,1.08
	l0.43,0.73l-0.31,0.41l0.27,1.07l1.08,0.93l1.14,1.91l1.31,3.91l3.45,2.74l0.4,0.83l1.13,0.62l0.53-0.33l1.97,1l0.12,0.44l0.57,0.18
	l-0.12,0.63l1.22,1.72l1.44,0.561l1.39,1.31l1.97,0.9l3.01,0.42l1.38,0.64l0.4-0.16l0.22,1.28l0.4-0.29l1,1.39l1.47,0.31l0.26,0.39
	l2.34-0.021l2.11,2.09l-0.11,0.48l0.601-0.07l0.49,0.75L375.248,107.482z"/>
<path id="MX-COA" fill="#B2B2B2" stroke="#848484" stroke-miterlimit="10" d="M463.909,143.132l-0.262,0.61l-1.091,0.79l-0.948,0.06
	l-1.92,1.3l-5.521-0.92l-3.67,0.26l-1.131,0.63l-0.552,2.34l-1.688,2.601l-0.289,0.79l0.16,2.29l-0.631,0.49l-2.23-0.12l-2.1,0.92
	l-1.189-0.38l-1.188,1.04l-1.83,2.98l0.25,3.34l2.818,2.07l0.59-0.05l0.701-3.12l0.629,0.07l2.051,1.48l0.42,5.13l-0.84,2.24
	l-1.051,0.77l-1.14,2.19l-3.201-0.04l-2.608,1.7l-3.51,0.28l-0.871,0.9l-1.039,2.73l-2.42,2.42l0.02,1.3l4.541,4.78l2.699,2.02
	l1.051,3.11l1.42,1.15l0.859,0.08l0.381,0.64l-0.99,2.9l0.24,2.47l0.84,1.78l1.109,0.14l0.84,0.66l2.131,0.08l0.35,0.36l0.562,3.41
	l0.817,0.85l3.281,1.88l-0.51,1.05l3.6,0.63l0.5,0.8l0.879,0.32l0.392,0.95l-0.75,0.89l-0.15,1.15l-0.34,0.2l-1.938-0.03l-3.41-0.88
	l-1.312-1.53l-1.739-0.17l-0.939,0.31l0.291,0.81l-1.791,0.57l-1.699,3.22l0.889,2.93l0.091,2.16l-0.199,0.39l-2.41,0.061
	l-0.16,0.37l0.291,0.83l-0.319,1.2l1.379,1.55l0.11,1.39l0.65,1.23l-1,3.26l0,0l-2.121-0.47l-0.75,0.32l-0.18,0.78l-1.439,0.37
	l-2.09-0.81l-1.371-1.3l-1.92-3.76l-1.25-0.82l-2.959-0.37l-2.271,0.51l-0.92,0.88l-2.83-0.02l-0.618-3.56l-1.16-0.32l-1.472,0.41
	l-2.159-3.07l-1.959-1.66l-2.5-0.97l-2.541-1.71l-9.398-0.61l-5.401,1.07l-0.63,0.53l-0.02,1.63l0,0l-3.05,2.03l-0.58,1.01
	l-0.51,2.14l0.5,1.72l-0.28,0.52l-0.69,0.21l-2.1-1.35l-2.78-0.16l-3.42-1.59l-1.3-1.2l-0.62-0.86l-0.54-3.12l-2.43-1.93l-0.6-1.74
	l-1.77-2.12l-0.63-3.15l1.36-1.36l2.26-0.45l-0.8-1.229l-1.34-0.26l-0.67-0.82l0.09-0.86l1.4-2.15l1.06-0.81l1.2-3.11l-1.2-4.47
	l-0.18-1.99l0.41-2.28l-1.68-3.95l-0.17-1.39l0.44-2.93l-1.38-3.97l-2.3-2.13l-0.82-1.21l-1.22-1.18l-2.98-0.79l-0.72-0.63l0,0
	l-1.08-1.83l-2.15-1.9l0.101-1.31l-0.44-0.8l1.92-0.91l1.07-1l1.15-0.04l0.41-1.54l-1.83-0.79l-0.54-0.68l-0.22-4.82l-0.68-3.68
	l0.479-1.14l-0.09-1.06l-0.24-0.83l-1.13-0.5l-0.81-4.52l1.09-1.16l-0.14-0.72l-0.72-0.78l0.57-0.82l0.06-0.83l-0.76-1.44l1.9-0.38
	l0.34-0.48l-0.49-1.46l-1.12-0.18l0.01-1.55l1.77,0.71l0.6-0.38l2.66-6.811l0.94-1.38l-0.87-1.42l0.56-1.1l2.27-3.78l1.64-0.61
	l1.41-1.11l1.73-4.01l0.7-0.34l0.84,0.32l0.66-0.98l-0.01-1.04l-1.71-0.61l-0.02-0.35l2.26-4.16l0,0l0.69,0.07l0.27-0.63l0.42,0.08
	l-0.26,0.57l1.36,0.71l0.1,0.51l0.44-0.45l0.34,0.399l1.61-0.11l0.851,0.38l0.89-0.36l0.51-2.25l0.271,0.2l0.29-1.06l0.82-0.11
	l1.09-1.72l0.02-0.59l0.62-0.25l0.37,0.29l0.99-0.47l0.17-0.71l0.63,0.22l0.46-0.35l-0.2-0.65l-0.8-0.45l0.43-0.81l0.17-1.76
	l1.03-0.22l-0.08-0.33l0.71-0.91l-0.38-0.25l0.05-0.9l0.7-1.25l-0.13-1.05l0.74-0.6l0.32-1.55l0.54,0.13l0.07-1.24l1.18-1.1
	l-0.12-0.42l0.69-1.56l1.11,0.23l1.38-0.59l0.63,0.32l0.859-0.59l-0.08-0.5l2.681,0.521l0.699-0.64l0.409-1.62l1.08-0.99l1.4,0.32
	l0.01,0.39l2.131,0.35l1.609,1.42l1.4,0.17l0.5-0.14l0.02-0.33l1.031-0.13l1.578,0.23l0.271,0.4l0.449-0.39l2.051-0.32l0.469,0.29
	l-0.059,0.54l0.779-0.25l1.68,0.75l0.43-0.19l0.371,0.32l0.41-0.29l0.279,0.4l1.91-0.561l0.079-0.561l0.609-0.5l0.189,1.49
	l1.979-0.84l0.201,1.05l1.059-0.53l0.23,0.21l-0.41,0.31l0.381,1.02l0.55,0.4l0.329,1.42l1.201-0.21l0.379,0.59l-0.278,1.53
	l0.608,0.44l0.23-1.33l0.311-0.35l0.459,0.14l0.15,1.62l-0.49,1.07l0.301,0.34l1.91,0.18l0.56,1.05l2.211,0.49l1.301,2.52
	l1.639,0.75l1.43,1.03l0.302,0.8l1.971,1.01l0.76,1.68l-0.239,0.42l2.379,1.79l0.399,0.88l0.351,3.74l0.461,1.22l0.739,0.07
	l0.66,2.01l0.681,0.11l0.34,0.61l0.1,1.32l0.609,0.6l0.19,2.13l1.31,0.64l0.021,0.81l1.25,0.77l-0.371,1.12l0.642,0.85l1.24,0.37
	l-0.121,0.41l-0.648,0.17l0.689,0.94l-0.23,1.37l1.5,2.4l-0.039,1.08l0.969,1.12l0.76,0.09l0.302,1.1l3.141,1.37l0.879,1.8
	l0.812,0.46l0.188,1.02l0.82,1.19l0.91,0.12l-0.021,1.09l1,1.01l-0.18,1.021l0.709,1.061v1.06l0.67,0.11L463.909,143.132z"/>
<path id="MX-COL" fill="#B2B2B2" stroke="#848484" stroke-miterlimit="10" d="M372.568,382.212l-2.47,2.24l-1.02-0.311l-0.38,0.28
	l0.03,1.789l-1.86,1.181l-0.68,1.7l0,0l-5.51-4.359l-5.18-2.771l-4.02-1.358l0.14-0.841l0.46-0.05l0.15-0.62l-0.45-0.521
	l-1.101-0.601l-1.84,0.939l-0.25-0.63l-1.75-0.74l-4.53-1.209l0.33-0.44l0.62,0.41l0.18-0.261l-0.59-0.22l0,0l1.92,0.05l1.48-1.789
	l1.14,0.479l0.56-0.109l0.479-0.84l0.87-0.58l0.55,0.399l3.771-0.88l1.27,0.38l1.13-0.29l3.101-2.319l3.25,0.319l1.41-0.21
	l3.22-1.68l2.51-2.41l0.61,0.13l0.479,2.891l-0.16,1.021l0.97,0.83l0.21,0.779l1.07,0.479l-0.5,1.801l0.07,3.119l-0.56,1.32
	l0.82,1.54L372.568,382.212z"/>
<path id="MX-DIF" fill="#98C717" stroke="#848484" stroke-miterlimit="10" d="M488.387,379.242l-0.948-0.021l-2.351,0.75l-0.91-0.8
	l-0.631,0.119l-1.299,1.091l-1.33-1.171l-1.33,0.24l0,0l-2.631-4.38l-0.09-0.979l3.17-2.75l0.551-1.979l2.24-2.46l0.33,0.359
	l-0.052,1.061l1.57,1.92l0.48,1.55l2.139,1.79l0.32,1.479l0.471-0.38l0.229,0.49l0.352,1.58l-0.471,1.67L488.387,379.242z"/>
<path id="MX-DUR" fill="#B2B2B2" stroke="#848484" stroke-miterlimit="10" d="M280.788,200.803l0.32-0.65l2.31-0.78l0.31,1.32
	l1.08,0.66l1.6-0.22l0.52,0.86l2.01,0.33l0.67,1.21l0.64,0.28l1.23-1.61l3.53-2.72l2.12-3.42l-0.61-1.9l-0.97-1.56l1.72-3.99
	l0.92-0.26l-0.36-2.14l0.41-0.36l1,0.16v-1.36l0.86-0.87l1.98-0.87l0.33-0.58l0.03-1.07l-1.12-0.5l-0.15-0.46l0.9-1.53l-0.03-1.6
	l0.9-3.39l0.63-0.47l-0.05-1.84l1.76-0.57l0.21-1.29l0.77-0.54l0.67,0.89l1.271,0.06l1.91,1.23l1.06,0.23l0.96,1.94l1.26,0.71
	l0.28,0.58l1.94,0.23l1.58,1.36h0.98l0.76,1.09l1.64-0.29l1.1,1.89l1.27-0.25l1.56,0.47l0.23,0.6l1.68-0.96l0.41,0.54l0.57-0.09
	l0.521-0.58l1.6-0.7l0.01-1.08l0.54,0.04l0.74,0.68l1.22,0.33l2.54-0.24l1.95,1.89l1.72,1.19l0.98,0.21l1.74-0.91l1.71,0.2
	l0.44-0.24l0.25-0.77l-0.24-1.34l1.89-3.08l1.51-0.54l1.15-1.521l2.5-0.39l0.07-1l-1.54-0.12l-0.48-0.66l0.31-0.74l0.73-0.32
	l1.38,0.89l1.43,0.24l0.68,1l1.43,0.28l0.88-0.81l1.51,0.57l3.21-1.05l0.79,0.12l-0.44,0.72l0.28,0.17l0.51-0.68l1.15,0.86l1.1-0.24
	l0,0l0.72,0.63l2.98,0.79l1.22,1.18l0.82,1.21l2.3,2.13l1.38,3.97l-0.44,2.93l0.17,1.39l1.68,3.95l-0.41,2.28l0.18,1.99l1.2,4.47
	l-1.2,3.11l-1.06,0.81l-1.4,2.15l-0.09,0.86l0.67,0.82l1.34,0.26l0.8,1.229l-2.26,0.45l-1.36,1.36l0.63,3.15l1.77,2.12l0.6,1.74
	l2.43,1.93l0.54,3.12l0.62,0.86l1.3,1.2l3.42,1.59l2.78,0.16l2.1,1.35l0.69-0.21l0.28-0.52l-0.5-1.72l0.51-2.14l0.58-1.01l3.05-2.03
	l0,0l0.35,0.521l0.04,1.649l0.75,0.34l0.36,1.1l1.53,0.71l0.8,0.94l-0.811,4.9l1.21,0.45l1.021,4l-0.97,0.52l-0.02,0.41l0.5,0.37
	l-0.12,0.68l-6.07,0.58l-1.68-0.229l-0.76,0.91l-2.66-0.87l-1-0.7l-1.12-0.1l-2.25,0.8l-2.23-0.7l-3.9-0.27l-1.71,1.37l-0.47,1.34
	l-2.4,1.82l-2.07,2.83l-2.26,2.14l-2.4,0.72l-0.23,1.32l0.78,0.51l0.37,1.649l-0.31,1.681l0.37,1.89l-0.45,1.201l0.89,4.27
	l-2.8,2.42l-2.32,2.891l-0.09,1.881l-1.29,5.77l-0.61,0.37l-1.37,2.729l-0.08,1.279l0.85,3.09l-0.16,5.551l-0.25,0.631l-3.21,1.42
	l-1.01,1.51l-1.16,3.05l0,0l-2.94,1.301l-0.399,1.38l-0.48,0.03l-1.82-1.11l-0.95-2.069l-2.49-2.39l-1.71-0.431l-1.39-1.761
	l-1.35,2.56l-0.81,0.852l-0.69-0.03l-2.2-4.58l1.69-1.76l1.7-0.87l0.6-0.89l-0.12-1.24l-1.15,0.029l-0.52-0.369l-0.58-2.461
	l-2.09-0.159l-1.33-0.601l-1.53-1.75l-0.54-0.029l-0.91,1.311l-1.68,0.35l-2.2-2.641l0,0l-2.12-2.18l-0.6-0.061l-0.85,0.601
	l-2.04-0.149l-0.61-1.279l-0.13-2.262l-1.22-1.34l-0.74-1.74l0.27-0.93l-1.05-2.92l-0.44-2.811l-1.72-1.649l-0.9-1.979l-1.08-1.211
	l-0.63-2.949l-0.71-1.061l-0.79-2.59l0.26-0.9l-1.03-0.93l-0.09-2.2l-1.74-2.27l-0.14-1.07l-1.08-0.26l-0.89-1.38l-1.45-0.96
	l-4.04-1.17l-0.67,1.04l-2.79,2.12l-1.33,0.189l-0.69,0.55l-0.7-0.49l-0.84,0.18l-0.59-1.96l-0.979-1.41l-0.811-4.12l-0.2-0.25
	l-0.57,0.42l-0.57-0.2l-1.21-4.47l-1.32-0.31l-0.89-2.61l-2.3-0.22l-0.53,0.44l-1.2-0.96l0.33-1.44l-1.2-2.38l-0.75-0.65l-0.48-1.82
	l-1.01-0.61l0.51-1.96l0.09-5.12l1.33-3.21l-0.08-0.68l-0.47,0.08l-0.601-0.72l1.73-2.22l1.19-0.77l-0.15-0.73l-0.73,0.16
	L280.788,200.803z"/>
<path id="MX-GUA" fill="#B2B2B2" stroke="#848484" stroke-miterlimit="10" d="M465.448,314.423l0.5,0.489l-0.109,2.061l-1.15,1.91
	l2.48,0.609l-0.041,1.17l-0.709,1.44l-1.451,0.67l-0.559,1.029l-1.103,0.17l-1.729-1.75l-1.521,0.561l-2.25,3.34l0.103,1.45
	l-0.672,1.601l-0.818-0.479l-0.221,1.1l-0.66,0.4l-2.721-0.38l-1.5,0.71l-4.58,0.279l-0.719,1.409l-0.65,3.801l0.141,0.761
	l0.959,0.71l0.65,1.739l-0.01,2.71l1.09,1.859l2.02,1.41l0.721,1.67l0,0l-0.43,1.09l0.601,1.182l0.1,1.318l-0.51,1.75l0.67,0.051
	l-0.08,0.99l-1.18,1.149l-2.062,0.279l-0.729,0.79l-0.479,1.399l-0.621,0.181l0.33-1.5l-0.5-0.24l-1.938,0.479l-1.382,1.021
	l-3.438-0.17l-2.58-0.909l-1.299-0.141l-0.611,0.289l-0.26-0.1l0.211-0.47l-0.461-2.341l-2.209,0.601l-1.392-0.44l-0.659,0.58
	l0.33,0.82l-1.222,0.521l-1.799-0.74l-2.541-0.239l-0.469-0.5l-0.021-3.24l-0.448-1.729l1.038,0.521l0.632-0.271l-1.341-1.8
	l-1.09-0.75l-1.43,0.239l-0.631-0.39l-2.1,0.689l-2.011,2.8l-0.909-0.3l-2.212,0.141l-0.479-0.431l-1.183,0.7l-0.809-0.091
	l-0.441-0.45l-0.68-2.85l0.361-0.4l-0.57-0.489l-0.551,0.069l-0.33-0.539l-0.859-0.051l0,0l0.379-2.771l1.791-3.43l-1.569-2.87
	l-1.65-0.431l-0.549-1.311l2.01-1.96l0.119-0.829l1.812-1.5l1.909-3.95l2.49-1.91l1.119-2.71l-0.109-0.649l0.521-0.739l1.471-0.091
	l0.43-0.37l0.67-1.369l-0.811-0.471l0.58-2.189l-0.699-0.12l1.521-5.529l-0.119-0.7l1.199-1.359l-0.74-0.83l1.221-1.29l0,0
	l0.97,0.631l0.811-0.939l0,0l1.16,0.67l2.91,0.31l1.26,0.73l4.631,1.06l1.229,0.75l1.07-0.04l4.971,3.721l2.74,1.431l2.75-0.03
	l1.521-0.609l-0.15-1.12l0.621-1.829l1.08-0.73l3.889,1.28l3.15,2l0.27,0.688l0.48-0.09l1.699,2.131l1.811-0.17l0.392-0.541
	l0.68,0.841l1.609,0.04L465.448,314.423z"/>
<path id="MX-GRO" fill="#B2B2B2" stroke="#848484" stroke-miterlimit="10" d="M449.478,379.542l0.301,2.939l-1.051,1.921
	l-0.738,4.229l0.369,1.601l1.75,0.76l0.1,1.189l-0.25,0.721l-1.66,1.811l0.65,0.659l1.33-0.27l1.51,0.329l0.221,1.08l1.57,1.96
	l0.039-0.431l0.621,0.03l0.34-0.391l0.188,0.37l1.98-2.181l2.469-0.58l-0.688-1.38l0.35-0.601l1.02-0.489l0.791,0.431l3.511-0.23
	l0.291-0.579l0.879-0.421l0.85,0.291l0.441-1.561l1.76-0.32l-0.361-1.721l0.812-0.05l0.91,1.08l1.979,0.67l0.82-0.489l0.809,0.13
	l0,0l0.511,0.84l-0.648,1.12l0.439,0.351l1.08-0.229l1.118,0.46l2.021,2.67l5.51,0.7l2.299,2.329l0,0l-0.049,1.229l1.351,1.181
	l1.34,0.62l1.221,2.25l2.99-0.2l0.219,0.801l-0.83,0.97l4.211,1.78l0.119,1.069l1.4-0.3l0.471,0.27l0.859-0.858l1.549-0.142
	l1.61,1.98l1.609,0.8l0,0l-1.74,3.95l-0.17,1.409l2.73,6.061l0.6,4.58l-0.92,0.83l-0.18,2.061l0.561,0.521l2.299,0.779l0.451,1.171
	l-0.11,1.909l0.271,0.591l1.16,0.25l0.42,0.539l0.358,1.561l-0.92,2.881l-0.91,0.92l-1.221,0.229l-0.93,0.67l-0.18,1.351
	l-4.109,3.59l-0.461,2.021l-4.641,3.54l0,0l-3.56-3.61l-1.93-2.51l-1.691,0.16l-0.33,0.561l-1.278-0.189l-10.619-3.2l-3.111-0.649
	l-4-0.04l-1.629-0.529l-2.08-1.091l-1.811-1.479l-0.99-0.26l0.621-0.641l-0.23-0.439l-0.979,0.04l0.188,0.43l-0.569,0.25
	l-1.109-1.729l-0.879-0.439l-26.59-9.479l0.129-0.579l-0.51-0.642l-2.49-1.75l-0.76-0.979l-6.24-2.63l0.229-0.841l-0.91-1.08
	l-0.811-0.569l-2.18-0.28l-0.101-0.54l-1.051-0.38l-0.76-1.89l-1.859-1.33l-1.371-2.352l-3.809-2.119l-2.201-0.681l-1.369,0.181
	l-0.739,0.819l-0.529-0.319l0,0l-0.82-1.261l0.109-3.93l0.76-0.63l2.641-0.82l0.859,0.25l1.461-0.64l0.76-0.771l1.619,0.37
	l0.82-0.28l0.18-0.318l-1.84,0.029l0.33-0.899l-0.109-1.23l-0.649-1.409l0.58-1.101l-0.632-1.229l0.132-0.342l0.641-0.029
	l-0.471-0.789l0.68-0.391l0.621,0.141l-0.211-0.461l0.561-0.109l0.529,0.82l0.479-0.771l-0.329-0.41l1.061-0.329l0.06,1.05
	l0.602-0.379l0.289,0.379l0.15-0.67l0.67-0.239l1.131,0.03l1.209,1.898l2,0.91l3.461-0.51l0.209-0.461l2.029-0.459l1.721,0.039
	l0.471,0.489l2.029,0.472l1.57-0.19l1.129,0.28l1.182,1.66l0.08,0.819l0.639,0.13l1.42-1.101l0.621,0.57l1.439,0.229l0.399,0.789
	l1.49,0.852l0.34-0.42l0.4,0.3l0.27,1.06l0.812-0.029l0.77-1.011l-2.83-3.789l-0.301-3.141l-1.219-4.24l0.469-1.029l1.1-0.851
	l0.421,0.04l0.569,1.57l2.441-2.921l0.93-0.529l1.09-2.45L449.478,379.542L449.478,379.542z M454.118,398.292l0.07,0.32l0.379-0.34
	L454.118,398.292z"/>
<path id="MX-HID" fill="#B2B2B2" stroke="#848484" stroke-miterlimit="10" d="M496.627,317.192l0.84,0.17l0.302,0.75l-0.302,2.66
	l1.83,1.709l1.26,0.66l1.312,0.069l0.859-0.899l2.03,0.62l2.529,3.421l-1.859,2.459l-0.631,2.211l0.562,1.061l-0.261,0.629
	l-1.45,0.23l-1.341-1.391h-0.459l-2.391,2.159l-0.32,0.86l-0.649,0.54l-0.328,3.659l-0.58,1.301l-0.25,2.08l1.17,2.59l0.879,1.08
	l0.5-0.221l1.33-1.55l2.48-1.16l1.879-2.229l1.602-0.729l2.139-2.33l0.83-0.35l1.461,0.949l0,0l0.07,3l-2.861,2.521l-0.91,1.38
	l-3.618,1.851l0.698,1.41l2.121-0.479l0.459,2.189l-0.809,4.8l-1.541,3.08l0.701,4.729l0,0l-2.381-0.5l-0.82,1.471l-1.449,1.21
	l-2.09,0.279l-1-0.229l-5.01,1.71l0,0l-0.201-1.41l1.84-4.148l-0.17-1.74l-5.811,0.609l-1.72,2.58l-0.239,0.21l-0.65-0.319l0.02-0.9
	l-0.868-1.77l0.198-0.521l0.91-0.529l0.851-0.08l1.11-4.279l-0.471-1.34l-0.6-0.07l-2.73,1.391l-3.879,1.069l-0.531,3.75
	l-0.688,0.761l-2.132-1.011l-0.17,2.24l-1.209,0.989l0.101-2.489l-0.4-1.341l-0.688-0.649l-0.34-1.25l-1.222-1.26l0.701-0.99
	l-1.51-3.13l-0.642-0.25l-0.131-0.58l-4.649-0.689l-2.629-1.49l-1.181-1.39l0,0l1.01-6.54l1.58-0.49l0.91-0.68l2.931-0.721
	l2.319-1.609l-0.631-2.021l1.15-2.561l1.16-0.42l0.811-1.2l0.469-2.21l0.83-1.561l-0.27-1.109l1.649-1.431l1.209,0.711l4.111-1.291
	l1.279-3.13l0,0l2.26-0.75l1.141,2.399l1.341,1.101l1.079-0.04l1.351-2.38l0.92,1.311l1.33-2.96l1.58-1.84L496.627,317.192z"/>
<path id="MX-JAL" fill="#B2B2B2" stroke="#848484" stroke-miterlimit="10" d="M390.528,309.792l2.05-1.119l4.209,0.38l1.74,1.409
	l2.17,1.021l1.26-0.061l3.021-1.04l0.721-0.5l2.551-3.55l4.279-1.971l-1.961-2.141l0.239-1.6l-0.26-0.591l0,0l3.541,0.91l2.129,1.14
	l2.67,2.351l2.091,0.75l0.28,0.391l0,0l-1.221,1.29l0.74,0.83l-1.199,1.359l0.119,0.7l-1.521,5.529l0.699,0.12l-0.58,2.189
	l0.811,0.471l-0.67,1.369l-0.43,0.37l-1.471,0.09l-0.521,0.74l0.109,0.649l-1.119,2.71l-2.49,1.909l-1.909,3.95l-1.812,1.5
	l-0.119,0.83l-2.01,1.96l0.549,1.311l1.65,0.431l1.569,2.87l-1.791,3.43l-0.379,2.771l0,0l-2.801,0.01l-2.139,1.041l-1.711-0.171
	l-1.33,0.46l-1.68-0.13l-1.07,0.341l-2.06,1.64l-1.06-0.08l-1.01,1.051l-0.94,0.33l-0.28,1.43l-2.97,0.729l-0.23,0.811l-0.44,0.04
	l-1.05-1.3l-2.47-0.45l-0.3,1.149l-0.93-0.2l-0.36,0.271l-0.02,2.35l-0.89,1.511l0.5,0.84l0.5,0.051l0.45-0.561l2.27,0.279
	l3.21,0.939l0.66,0.641l0.609,2.21l-0.33,0.811l-0.93,0.74l1.91,4.199l-0.63,2.59l3.36-0.069l0.61,0.68l0.06,1.562l-2.36,2.5
	l-0.85,2.31l-2.31-0.579l-1.37,0.72l-4.02,3.58l-2.2,1.21l-1.59,1.74l-0.29,0.09l-1.26-1.761l-0.53-0.101l-2.22,1.7l-1.55-0.3
	l-1.66,0.409l0,0l-0.05-1.96l-0.82-1.54l0.56-1.319l-0.07-3.119l0.5-1.801l-1.07-0.479l-0.21-0.78l-0.97-0.83l0.16-1.02
	l-0.479-2.891l-0.61-0.13l-2.51,2.409l-3.22,1.681l-1.41,0.21l-3.25-0.319l-3.1,2.319l-1.13,0.29l-1.27-0.38l-3.771,0.88
	l-0.55-0.399l-0.87,0.58l-0.479,0.84l-0.561,0.109l-1.14-0.479l-1.48,1.79l-1.92-0.05l0,0l-0.56-0.53l-0.63,0.09l-0.08-0.51
	l-0.66,0.26l-0.49-0.3l-0.85,0.13l0.01-0.64l0.51-0.55l-0.13-0.461l-0.89-0.289l-0.23,0.43l-0.93,0.189l-2-1.069l-1.89-1.721
	l0.36-0.721l-0.37-0.729l-0.84-0.47l0.09-0.851l-0.45-0.221l-0.22-1.489l-0.76-0.74l-0.84-0.029l0.04-0.359l-2.83-2.11l-0.26-0.729
	l-1.43-1.511l-0.4-1.109l-3.92-5.33l-1.12-2.32l0.21-2.209l-0.34-1.221l-0.68-0.24l-0.13-0.6l-2.24-2.341l-0.46-1.649l1.05-0.51
	l0.95-1.13l7.41-1.16l1.5-1.101l0.66-1.609l-0.31-0.971l-1.28-1.061l0,0l4.45-5.62l1.17-0.449l2.33,0.471l3.19-2.44l1.25-0.21
	l1.5,0.73l1.21,1.43l3.08,0.779l2.66,3.011l1.08,0.561l2.3,2.119l0.67,0.78l0.5,1.55l0.51,0.32l0.03-1.46l-1.18-1.461l0.29-0.35
	l-0.73-0.75l-0.37-1.529l0.45-0.641l0.82-0.181l1.5-8.511l4.04-0.229l0.95-0.399l0.97-0.971l1.71-0.279l2.25-1.279l0.4-0.82
	l0.399-4.22l-0.24-1.479l-1.39-1.24l-1.74-4.289l-4.5-0.601l-0.85-1.61l-0.11-2.721l-0.53-0.479l-1.11-0.09l-1.2-1.16l-1.65,0.521
	l-0.46-3.021l1.24-4.89l-0.18-0.479l0,0l1.08-1.21l1.35,0.34l0.36-3.03l3.1-1.17l0.53,0.37l-1.05,3.239l0.27,0.49l1.8-1.14
	l1.03-1.181l-0.16-1.43l-1.74-3.842l0.11-0.789l2.16-1.529l2.66-0.381l1.81,1.01l-0.17,0.91l-1.1,0.82l-1.45,1.869l-1.69,4.221
	l-0.04,3.32l1.21,1.779l1.16,0.17l0.38-1.16v-7.039l0.63-0.57l3.43-0.67l1.42,0.51l1.4,1.32l0.6,1.93l-0.04,1.16l-3.78,6.17
	l-0.09,0.45l0.58,0.659l1.93,0.021l0.69-0.801l1.27,0.199l0.71,0.521l0.9-0.44l0.93-1.729l2.39-1.89l-1.24-1.03l0.31-1.869
	l1.88-0.73l2.17,0.17l0.41,0.86l-0.76,1.511l0.5,0.439l2.15,0.141l0.51,0.379l-0.7,3.471l-1.189,2.91l-0.74,0.689l-1.26,0.199
	l-3.28,1.682l-1.77,1.729l-2.92,2.07l0.18,1.789l-0.33,2.471l-1.62,1.88l-1.79,0.461l0.85,2.479l0.93,0.539l1.02-0.489l0.67,0.141
	l0.34,0.58l-0.1,1.02l-1.17,1.12l-4.04,1.811l0.17,0.5l2.5,0.62l0.75,0.811l0.75,1.699l0.94,0.49l2.26-0.189l2.9,1.609l0.99-0.479
	l0.88,0.069l0.22-0.561l1.34-0.26l1.71,0.43l0.11-0.369l1.47-0.521l0.33-2.021l0.63-0.54l1.37-0.489l1.52,0.5l3.58-2.91l2.29-1.4
	l0.96-1.31l0.48-2.69l-2.78-1.779l-0.65-1.851L390.528,309.792z"/>
<path id="MX-MEX" fill="#B2B2B2" stroke="#848484" stroke-miterlimit="10" d="M454.567,398.272l-0.379,0.34l-0.07-0.32
	L454.567,398.272z M463.428,346.593l1.17,1.399l2.642,1.489l4.639,0.69l0.131,0.58l0.64,0.26l1.512,3.12l-0.701,1l1.221,1.25
	l0.341,1.25l0.688,0.649l0.4,1.34l-0.101,2.49l1.209-1l0.17-2.24l2.131,1.011l0.689-0.771l0.531-3.75l3.879-1.08l2.73-1.38
	l0.59,0.06l0.471,1.341l-1.111,4.279l-0.85,0.08l-0.91,0.521l-0.209,0.521l0.869,1.779l-0.01,0.891l0.641,0.32l0.238-0.2l1.721-2.58
	l5.82-0.609l0.17,1.739l-1.84,4.15l0.188,1.42l0,0l0.972,1.819l0.76-0.239l0.52,0.6l0,0l0.391,1.82l-0.561,0.609l-0.039,1.09
	l1.039,3.631l0.121,4.399l0,0l-0.891,0.181l-2.609,2.06l-2.551-0.939l-0.93-1.59l-0.98-0.83l0,0l-0.189-0.83l0.47-1.67l-0.351-1.58
	l-0.229-0.5l-0.472,0.38l-0.311-1.479l-2.142-1.8l-0.479-1.54l-1.57-1.92l0.049-1.061l-0.329-0.359l-2.238,2.46l-0.562,1.979
	l-3.17,2.75l0.101,0.979l2.619,4.38l0,0l-3.949,6.3l-0.449,1.431l-1.561,1.841l-0.24,1l0,0l-0.812-0.131l-0.817,0.49l-1.98-0.67
	l-0.91-1.08l-0.811,0.05l0.358,1.721l-1.76,0.319l-0.438,1.561l-0.851-0.29l-0.881,0.42l-0.289,0.58l-3.51,0.229l-0.791-0.43
	l-1.02,0.489l-0.351,0.601l0.689,1.38l-2.472,0.58l-1.979,2.181l-0.191-0.37l-0.34,0.391l-0.619-0.03l-0.041,0.431l-1.569-1.96
	l-0.22-1.08l-1.51-0.33l-1.33,0.271l-0.649-0.659l1.659-1.811l0.25-0.721l-0.1-1.189l-1.75-0.761l-0.371-1.601l0.74-4.229
	l1.051-1.92l-0.301-2.939l0,0l0.561-0.38l0.23-1.131l1.5-1.829l1.1-2.391l-0.281-0.979l0.763-1.779l0.43-0.602l0.67-0.119l0.3-0.619
	l-0.439-5.182l-0.57-0.47l-0.959-1.95l1.51,0.102l1.439-0.5l0.291-0.512l0.279-2.06l1.33-1.7l-0.041-0.609l-0.869-0.819l0.08-2.431
	l0,0l2.551-0.311l1.92-2.01l-0.291-1.73l-0.539-0.959l0.24-0.311l0.879,0.6l0.65-0.13l-0.212-0.72l0.302-0.631L463.428,346.593
	L463.428,346.593z"/>
<path id="MX-MIC" fill="#B2B2B2" stroke="#848484" stroke-miterlimit="10" d="M408.269,344.952l0.858,0.051l0.33,0.539l0.551-0.069
	l0.57,0.489l-0.361,0.4l0.681,2.85l0.44,0.45l0.81,0.091l1.182-0.7l0.479,0.431l2.211-0.141l0.91,0.3l2.01-2.8l2.101-0.689
	l0.631,0.39l1.431-0.239l1.09,0.75l1.34,1.801l-0.631,0.27l-1.039-0.52l0.449,1.729l0.021,3.24l0.469,0.5l2.541,0.24l1.799,0.739
	l1.222-0.521l-0.33-0.82l0.66-0.579l1.391,0.439l2.209-0.601l0.461,2.34l-0.211,0.471l0.26,0.101l0.611-0.29l1.299,0.141l2.58,0.909
	l3.439,0.171l1.381-1.021l1.938-0.479l0.5,0.239l-0.33,1.5l0.621-0.181l0.479-1.399l0.729-0.79l2.062-0.279l1.18-1.149l0.08-0.99
	l-0.67-0.051l0.51-1.75l-0.1-1.319l-0.601-1.181l0.431-1.09l0,0l1.549,0.99l1.221,1.92l-0.18,0.75l3.289,3.04l0,0l-0.08,2.431
	l0.871,0.81l0.028,0.62l-1.329,1.7l-0.279,2.05l-0.291,0.521l-1.43,0.49l-1.521-0.101l0.961,1.96l0.568,0.471l0.432,5.18
	l-0.301,0.62l-0.66,0.109l-0.438,0.601l-0.761,1.79l0.279,0.979l-1.101,2.391l-1.5,1.83l-0.229,1.13l-0.562,0.39l0,0l-2.25,1.381
	l-1.09,2.46l-0.93,0.529l-2.439,2.921l-0.569-1.57l-0.42-0.04l-1.101,0.851l-0.471,1.029l1.221,4.23l0.299,3.148l2.83,3.791
	l-0.77,1.01l-0.811,0.021l-0.271-1.061l-0.399-0.3l-0.341,0.41l-1.479-0.841l-0.398-0.79l-1.44-0.229l-0.619-0.569l-1.41,1.1
	l-0.65-0.119l-0.079-0.83l-1.181-1.66l-1.129-0.27l-1.57,0.189l-2.03-0.471l-0.47-0.5l-1.721-0.04l-2.029,0.46l-0.211,0.46
	l-3.459,0.5l-1.989-0.909l-1.211-1.9l-1.13-0.029l-0.659,0.25l-0.15,0.67l-0.289-0.38l-0.602,0.38l-0.06-1.061l-1.061,0.34
	l0.319,0.4l-0.479,0.77l-0.529-0.819l-0.561,0.11l0.209,0.459l-0.619-0.14l-0.681,0.39l0.47,0.791l-0.64,0.029l-0.131,0.34
	l0.631,1.229l-0.58,1.101l0.65,1.399l0.109,1.229l-0.33,0.899l1.84-0.021l-0.18,0.312l-0.82,0.279l-1.619-0.37l-0.762,0.779
	l-1.469,0.641l-0.859-0.25l-2.631,0.82l-0.76,0.63l-0.109,3.93l0.818,1.271l0,0l0.19,0.761l-1.28,0.53l-2.96-1.461l-4.051-1.21
	l-7.91-1.729l-5.13-2.391l-3.78-0.699l-4.95-1.859l-0.521,0.229l-3.81-2.319l-1.771-4.109l-2.87-2.229l0.36-0.84l-1.56-1.891l0,0
	l0.68-1.7l1.859-1.181l-0.03-1.789l0.38-0.28l1.02,0.311l2.47-2.24l0,0l1.66-0.409l1.55,0.301l2.22-1.7l0.53,0.101l1.26,1.76
	l0.29-0.09l1.59-1.74l2.2-1.21l4.02-3.579l1.37-0.721l2.311,0.58l0.85-2.311l2.36-2.5l-0.061-1.561l-0.609-0.681l-3.36,0.069
	l0.63-2.59l-1.91-4.199l0.93-0.74l0.33-0.811l-0.609-2.21l-0.66-0.64l-3.21-0.94l-2.27-0.279l-0.45,0.561l-0.5-0.051l-0.5-0.84
	l0.89-1.511l0.02-2.35l0.36-0.271l0.93,0.2l0.3-1.15l2.47,0.45l1.05,1.3l0.44-0.04l0.229-0.81l2.97-0.73l0.28-1.43l0.94-0.33
	l1.01-1.051l1.06,0.08l2.06-1.64l1.07-0.341l1.68,0.13l1.33-0.459l1.711,0.17l2.139-1.04L408.269,344.952z"/>
<path id="MX-MOR" fill="#B2B2B2" stroke="#848484" stroke-miterlimit="10" d="M479.588,379.452l1.33-0.24l1.33,1.171l1.299-1.091
	l0.631-0.119l0.91,0.8l2.351-0.75l0.948,0.021l0,0l0.98,0.83l0.93,1.59l2.551,0.939l2.619-2.061l0.892-0.18l0,0l-2.761,7.08
	l1.271,7.84l-0.551,0.721l-2.761-2.641l-0.51,0.119l-0.799,1.261l-1.16,0.641l-0.611,0.989l-2.77,1.9l0,0l-2.299-2.341l-5.513-0.689
	l-2.02-2.681l-1.129-0.449l-1.07,0.229l-0.44-0.36l0.649-1.119l-0.5-0.83l0,0l0.24-1.01l1.561-1.841l0.439-1.43L479.588,379.452z"/>
<path id="MX-NAY" fill="#B2B2B2" stroke="#848484" stroke-miterlimit="10" d="M304.008,319.192l0.16,0.811l-0.79,0.369l-0.46-0.71
	l0.42-0.46L304.008,319.192L304.008,319.192z M298.828,314.843l1.56,0.439l0.4,0.561l-0.51,0.38l-0.15,0.761l-2.29-0.87l-0.4-0.529
	L298.828,314.843L298.828,314.843z M293.408,309.542l2.62,0.7l0.4,0.439l-0.06,0.591l0.77,0.779l-0.21,0.87l-0.6,0.369l-2.37-1.271
	l-0.54-1.38L293.408,309.542z M292.968,307.442l0.36,1l-0.51,0.229l-0.24-0.83L292.968,307.442L292.968,307.442z M317.688,286.043
	l0.58,1.439l-0.17,1.35l0.55,0.48l-0.21,0.67l0.94,6.35l-0.6,0.03l-0.18-0.399l-0.75-4.16l-1.96-4.49l0.28-0.25l1.1,1.771l0.76-0.25
	l-0.74-2.17L317.688,286.043z M324.888,273.252l2.2,2.641l1.68-0.35l0.91-1.311l0.54,0.029l1.521,1.75l1.33,0.601l2.09,0.159
	l0.58,2.471l0.52,0.37l1.15-0.03l0.12,1.24l-0.59,0.891l-1.7,0.869l-1.69,1.761l2.2,4.579l0.69,0.03l0.81-0.851l1.35-2.56
	l1.391,1.76l1.7,0.431l2.49,2.391l0.96,2.068l1.811,1.121l0.479-0.041l0.4-1.379l2.939-1.301l0,0l0.21,2.77l0.42,0.961l0.73,0.43
	l0,0l0.18,0.48l-1.25,4.891l0.46,3.02l1.66-0.52l1.2,1.148l1.11,0.09l0.53,0.48l0.11,2.72l0.85,1.62l4.5,0.601l1.74,4.29l1.39,1.239
	l0.24,1.471l-0.399,4.221l-0.4,0.83l-2.25,1.279l-1.72,0.279l-0.97,0.971l-0.96,0.399l-4.04,0.229l-1.5,8.511l-0.82,0.18
	l-0.45,0.641l0.38,1.529l0.73,0.75l-0.29,0.351l1.18,1.46l-0.04,1.46l-0.51-0.319l-0.5-1.55l-0.68-0.78l-2.3-2.12l-1.08-0.55
	l-2.66-3.011l-3.08-0.789l-1.21-1.431l-1.5-0.729l-1.25,0.221l-3.19,2.43l-2.33-0.46l-1.17,0.45l-4.45,5.619l0,0l-1.22-1.75
	l-0.47-0.08l-0.88,0.73l-3-0.99l0.77-0.63l0.92-2.149l0.36,0.09l0.87-1.569l1.21-0.801l0.88-1.17l0.149-0.84l1.021,0.35l1.14-1.619
	l-0.28-0.979l0.5-3.15l-0.65-2.829l1.39-2.69l-0.21-1.25l-0.74-0.84l-0.93,0.311l-4.66-3.17l-1.43-3.569l-2.97-5.061l-0.73-2.66
	l0.18-3.21l0.8-0.38l0.46,1.189l0.6,0.1l0.31,0.801l1.98,0.97l0.3-1.521l-1.02-0.709l-0.25,0.25l-0.35-0.75l-1.02,0.34l-0.19-0.569
	l0.38-0.351l-0.07-0.61l-0.45-0.06l-0.33,0.42l-0.33-0.301l0.13-0.699l-0.52-0.971l-0.21-3.391l-0.3-0.568l0.19-0.852l-0.58-0.391
	l0.25-0.68l-0.63-2.109l0.33-0.17l0,0l2.1,1.239l3.46,0.57l0.36-0.892l-0.23-2.039l-0.4-0.36l-0.21-1.33l-1.31-1.299l-0.45-1.302
	l0.33-1.02l1.69-2.101l0.56-3.409L324.888,273.252L324.888,273.252z"/>
<path id="MX-NEL" fill="#98C717" stroke="#848484" stroke-miterlimit="10" d="M466.829,145.862l-0.65,0.34l-1.281,1.73l-2.778,0.8
	l-0.619,0.69l0.271,0.79l-0.351,1.07l0.601,0.45l4,0.19l0.049,0.88l-1.17,1.42l1.271,0.87l-0.221,2.46l0.239,1.38l1.15,1.13
	l0.42,3.19l-1.641,1.39l-0.812,2.39l0.132,1.12l1.471-0.05l1.25,0.66l0.52,0.78l-0.471,1.29l-0.23,3.22l0.802,0.82l0.879-0.37
	l0.672,0.4l0.84,1.9l1.879,0.22l1.24,4.14l1.82,2.49l1.409-0.13l-0.061,1l1.17,1.62l0.689,0.09l0.75-0.73l0.631,0.05l0.18,0.6
	l-0.359,0.73l0.761,1.34l-0.892,0.33l0.82,0.46l0.371,0.65l3.279,0.46l0.649,0.59l1.189,2.34l0.948,0.54l2.66-1.53l1.07,0.15
	l3.381-0.69l0.689,0.45l0.141,1.47l0.789,1.01l-0.299,3.351l0.59,1.521l-0.471,0.77l-0.199,2.07l0.689,1.57l-0.41,0.8l0.989,0.83
	l1.99,0.63l0.4,0.26l0.028,0.52l-1.541,1.58l-0.59,1.37l-1.25,0.62l-1.358,1.44l-0.779,0.08l-0.99,1.13l-4.381,0.851l-0.99,1.14
	l-0.75,2.03l-2.799-0.22l-0.61-1.17l-0.511-0.04l-1.459,1.97l-1.26,0.41l-0.25,0.4l0.6,2.24l0.67,0.36l-0.381,1.67l-0.897,0.09
	l-0.92,0.69l-0.472,1.6l-1.121,0.45l-0.379-1.52l-0.381,0.13l-0.358,1.04l-1.15,0.47l-1.119,1.6l-1.76-0.1l-1.301,2.13l-2.869,1.27
	l-1.99,1.35l-0.691,2.1l0.222,0.28l1.83-0.09l1.26,2.62l-0.859,6.771l1.771,2.09l1.399,3.64l1.369,0.771l0.76,2.34l-2.25-0.439
	l-0.358,0.102l-0.34,1.51l-1.761,0.97l-0.711,0.149l-2.549-0.68l-2.311,1.229l-0.66,2.81l-1.48,1.771l-0.33,0.96l0.392,2.84
	l-0.209,1.771l-3.09-0.38l-0.802,0.681l0.552,1.35l-0.433,0.771l0,0l-3.897-0.74l-2.34,2.8l-1.5-0.72l-1.24-1.471l-0.562-1.649
	l-0.25-4.091l-0.51-1.27l1.15-5.602l-0.111-0.89l-0.969-1.461l0.209-4.369l-0.879-2.25l-2.48-3.13l0.129-1.43l-1.789-1.71
	l-0.291-0.81l1.201-1.57l0.049-0.33l-0.688-0.26l0.479-1.57l-1.391-0.5l-1.049,0.19l-1.722-2.32l0,0l0.552-0.42l0,0l1-3.26
	l-0.65-1.23l-0.111-1.39l-1.379-1.55l0.32-1.2l-0.291-0.83l0.16-0.37l2.41-0.06l0.2-0.39l-0.092-2.16l-0.889-2.93l1.699-3.22
	l1.791-0.57l-0.291-0.81l0.938-0.31l1.74,0.17l1.312,1.53l3.409,0.88l1.939,0.03l0.34-0.2l0.15-1.15l0.75-0.89l-0.392-0.95
	l-0.879-0.32l-0.5-0.8l-3.6-0.63l0.51-1.05l-3.281-1.88l-0.817-0.85l-0.562-3.41l-0.35-0.36l-2.131-0.08l-0.841-0.66l-1.108-0.14
	l-0.84-1.78l-0.24-2.47l0.99-2.9l-0.381-0.64l-0.859-0.08l-1.42-1.15l-1.051-3.11l-2.699-2.02l-4.541-4.78l-0.021-1.3l2.42-2.42
	l1.041-2.73l0.869-0.9l3.511-0.28l2.608-1.7l3.201,0.04l1.139-2.19l1.052-0.77l0.84-2.24l-0.42-5.13l-2.05-1.48l-0.631-0.07
	l-0.699,3.12l-0.592,0.05l-2.817-2.07l-0.25-3.34l1.83-2.98l1.188-1.04l1.188,0.38l2.101-0.92l2.229,0.12l0.632-0.49l-0.16-2.29
	l0.289-0.79l1.69-2.601l0.549-2.34l1.132-0.63l3.67-0.26l5.52,0.92l1.92-1.3l0.949-0.06l1.09-0.79l0.263-0.61l0,0l0.75-0.17
	l0.237,0.93l0.771,0.25L466.829,145.862z"/>
<path id="MX-OAX" fill="#B2B2B2" stroke="#848484" stroke-miterlimit="10" d="M543.868,396.112l1.17-2.181l0.301-0.96l-0.49-0.739
	l0.049-0.86l0.65-0.609l1.15,1.16l1,0.351l-0.58,1.27l0.609,2.74l0.641,0.899l1.961,1.551l1.299-0.381l1.391,0.811l1.021,1.891
	l1.381,0.09l-0.541,0.899l0.701,0.351l2.469-0.779l1.431,0.521l1.149-0.189l2.031,0.479l0.52,0.439l1,3.79l-0.221,1.25l-0.811,1.12
	l-0.988,2.569l-0.721,0.681l0.34,0.72l-0.17,1.181l2.17,4.42l1.961,0.58l1.26-0.649l2.869-0.171l3.01-2.1l3.66-0.921l1.211-1.09
	l0.42,0.069l1.369,0.841l-0.18,0.68l-1.49,0.66l-0.229,1.13l3.36,4.41l3.449,2.79l-0.01,0.989l0.641,0.57l-0.33,1.37l28.57,1.75l0,0
	l-0.342,0.939l0.03,2l-0.76,1.02l-0.801,3.49l-2.939,2.62l-2.188,6.29l-0.08,0.85l1.237,2.931l-0.52,1.461l0.121,2.108l0,0
	l0.039,0.44l-1.98,0.89l-0.487-0.09l-0.521-0.431l-0.719,0.07l-0.791-0.87l-0.869,0.021l-0.891-1.51l-1.119,0.39l0.02,0.99
	l-0.659,0.05l-0.021,0.63l1.119,0.961l4.371,0.319l3.067,2.29l0,0l-0.18,0.641l0,0l-4.709-2.07l-2.961-0.909l-7.689-1.12
	l-0.239-0.45l2.641-0.899l0.729-0.649l0.399-1.13l-2.379-0.841l-1.291,0.899l-0.389,0.771l-0.961,0.051l-0.271,0.609l-0.51-0.149
	l-0.102-0.391l1.102-0.939l-1.102-0.931l0.239-0.609l-1.389-1.05l-1.67,0.439l-1.302,2.229l-1.25-0.03l-0.92,0.82l0.211,0.859
	l-0.61,0.061l-0.439,0.8l6.42-0.01l1.841,0.24l0.121,0.289l-3.642,0.061l-3.99,0.67l-1.85-0.16l-0.16,0.61l-2.02,0.17l-0.48,0.46
	h-0.631l-0.16,1l-2.02,0.891l-0.341,0.521l0.211,0.779l-1.37,0.46l-0.181,0.54l-1.551-0.181l-0.109,0.58h-1.971l-0.109,0.471
	l-2.028,0.891l-2.441,0.34l-1.278,0.851l-3.851,1.011l-2.729,1.26l0.01,0.26l-1.459,0.4l0.18,0.33l-2.949,1.43l-4.45-0.271
	l-1.869,0.971l-1.57-0.03l-3.541-1.49l-4.01-0.6l-1.549-0.95l-2.433-0.76l-0.77-0.54l-0.271-0.771l-3.76-1.7l-3.26-0.609
	l-2.021,0.13l-2.639-0.729l-0.74,0.181l-2.569-0.4l-0.439,0.392l-2.43-0.37l-5.683-3.74l-5.438-2.899l-4.67-0.84l-3.82-1.381l0,0
	l4.641-3.55l0.461-2.01l4.109-3.591l0.189-1.351l0.93-0.67l1.221-0.229l0.9-0.91l0.92-2.879l-0.361-1.551l-0.42-0.54l-1.16-0.261
	l-0.27-0.59l0.111-1.91l-0.451-1.17l-2.289-0.78l-0.562-0.51l0.181-2.069l0.92-0.83l-0.609-4.58l-2.729-6.061l0.17-1.42l1.739-3.95
	l0,0l1.199-1.399l2.07-1.351l1.57-0.358l3.461-0.011l1.449-0.59l2.188,1.609l1.18,0.359l0.722-0.21l1.77-1.641l-0.07-0.43
	l-2.35-1.641l-0.439-0.761l2.029-4.33l1.562-0.68l1.59-0.2l0.479,0.341l0.23,0.97l-0.1,0.461l-1.33,0.898l0.1,0.4l1.309,0.96
	l0.74,1.079l1.441,2.82l0.358,1.641l0.82,0.699l0.869-0.851l0.91-1.899l2.6-2.58l1.361-0.289l3.719,0.89l1.781-1.479l0.108-0.891
	l0.289,0.561l1.361-0.899l2.389-0.51l1.92-3.45L543.868,396.112z"/>
<path id="MX-PUE" fill="#B2B2B2" stroke="#848484" stroke-miterlimit="10" d="M511.598,338.202l0.699-2.561l0.961-0.75l0.09-0.83
	l0.88-0.939l0.271-1.02l1.18,0.39l2.029-0.319l-0.01,1.79l-1.23,0.75l0.16,0.3l0.871-0.189l0.809,0.601l-0.368,0.84l0.159,0.841
	l0.812,0.84l2.229,1.22l0.48,1.12l-1.5,2.471l-1.609-0.92l-1.17,0.76l0.059,4.01l0.461,2.371l0.681,0.55l2.041-0.221l0.858,1.78
	l0.591,0.199l1.608-1.399l1.222-1.95l0.819-0.659l7.06,2.479l0.08,0.51l-2.158,2.99l-1.65,4.279l-0.2,0.811l0.319,0.979l-0.34,0.97
	l-0.67,0.87l-0.972,2.63l-0.567,0.24l-0.25,0.7l1.379,2.989l-0.549,1.381l0.34,0.42l1.43,0.989l3.63,0.82l2.932,1.271l0.469,0.59
	l0.109,1.279l-0.158,0.7l-0.531,0.119l-4.82-0.22l-0.188,0.899l0.521,6.12l-0.07,0.551l-1.859,2.409v2.989l0.359,1.11l0.852,0.729
	l3.81,1.109l-0.171,0.75l1.861,3.13l1.43,0.101l0.949-1.05l1.392-0.801l2.58,0.83l1.85,2.16l0,0l-0.812,0.84l-1.92,3.45l-2.389,0.51
	l-1.361,0.9l-0.289-0.561l-0.108,0.891l-1.781,1.479l-3.719-0.89l-1.361,0.29l-2.6,2.58l-0.91,1.899l-0.869,0.851l-0.819-0.7
	l-0.359-1.641l-1.441-2.819l-0.74-1.08l-1.309-0.96l-0.102-0.399l1.33-0.9l0.102-0.459l-0.23-0.971l-0.479-0.34l-1.59,0.199
	l-1.562,0.681l-2.028,4.329l0.438,0.761l2.351,1.641l0.069,0.43l-1.77,1.641l-0.721,0.21l-1.181-0.359l-2.188-1.609l-1.449,0.59
	l-3.461,0.01l-1.57,0.36l-2.07,1.351l-1.198,1.399l0,0l-1.609-0.8l-1.602-1.98l-1.55,0.141l-0.86,0.859l-0.47-0.27l-1.399,0.311
	l-0.131-1.08l-4.199-1.78l0.83-0.97l-0.221-0.801l-2.979,0.2l-1.221-2.25l-1.351-0.62l-1.35-1.181l0.049-1.22l0,0l2.771-1.9
	l0.61-0.989l1.16-0.641l0.799-1.26l0.511-0.12l2.76,2.641l0.551-0.721l-1.27-7.84l2.76-7.08l0,0l-0.119-4.399l-1.041-3.63
	l0.041-1.09l0.549-0.61l-0.379-1.829l0,0l0.699-0.291l1.16,0.37l3.028,2.311l1.32,1.38l0.541,1.38l1.18,1.312l4.06,2.239
	l0.861-0.141l3.069-2.681l0.568-0.039l1.461,0.989l0.77-0.05l1.24-0.84l1.4-2.33l0.84,0.319l2.68-0.511l0.82-0.55l0.278-1.149
	l-0.938-0.2l-0.67-0.601l-0.312-1.17l-1.209-1.239l-0.59-0.38l-1.531,0.5l-0.84-0.17l0.131-1.73l-4.1-3.41l-0.711-1.06l-0.49-0.07
	l-1.549,1.83l-0.611,0.24l-2.059-0.38l0,0l-0.701-4.73l1.541-3.08l0.81-4.8l-0.46-2.189l-2.12,0.479l-0.699-1.41l3.619-1.85
	l0.909-1.381l2.861-2.521L511.598,338.202z"/>
<path id="MX-QUE" fill="#B2B2B2" stroke="#848484" stroke-miterlimit="10" d="M483.948,320.332l-1.279,3.13l-4.111,1.291
	l-1.209-0.711l-1.649,1.431l0.27,1.109l-0.83,1.562l-0.469,2.209l-0.811,1.2l-1.16,0.42l-1.15,2.561l0.631,2.021l-2.319,1.609
	l-2.931,0.721l-0.909,0.68l-1.58,0.49l-1.011,6.54l0,0l-1.1,0.79l-0.301,0.63l0.211,0.721l-0.66,0.12l-0.881-0.601l-0.24,0.31
	l0.541,0.961l0.289,1.729l-1.92,2.01l-2.551,0.311l0,0l-3.289-3.04l0.18-0.75l-1.219-1.92l-1.552-0.99l0,0l-0.721-1.67l-2.02-1.41
	l-1.09-1.859l0.01-2.71l-0.65-1.739l-0.959-0.71l-0.141-0.761l0.65-3.801l0.721-1.409l4.578-0.279l1.5-0.71l2.721,0.38l0.66-0.4
	l0.221-1.1l0.82,0.479l0.67-1.601l-0.102-1.45l2.25-3.34l1.521-0.561l1.729,1.75l1.102-0.17l0.559-1.029l1.451-0.67l0.709-1.44
	l0.041-1.17l-2.48-0.609l1.15-1.91l0.109-2.061l-0.5-0.489l0,0l-0.59-0.57l1.539-0.38l-0.279-0.45l0.18-0.479l1.101,0.04l1.512,1
	l0.59,1.891l0.629,0.66l2.49,0.25l1.938-0.5l0.58,0.359l1.062-2.771l0.561-0.37l0.8,0.24l0.479-0.279l0.99,2.199l3.221,3.351
	l0.818,1.46L483.948,320.332z"/>
<path id="MX-ROO" fill="#B2B2B2" stroke="#848484" stroke-miterlimit="10" d="M792.188,339.013l-1.08,2.58l-1.142,1.479l-0.35,0.05
	l-2.562,3.351l-1.569,0.971l-0.67-1.71l0.12-1.91l2.289-3.75l0.701-0.36l0.719,0.761l0.341-0.33l0.461,0.28l1.551-0.399
	L792.188,339.013z M731.659,408.883l-0.25-2.46l2.438-2.83l0.57-1.26l-0.281-4.7l-0.469-1.38l0.568-1.671l-0.818-0.46l0.51-1.369
	l-0.149-0.711l-0.99-1.239l-0.17-1.271l0.801-5.13l-0.221-2.521l0.41-0.671l1.17-0.659l0.18-5.851l-3.41-4.67l-5.299-4.25
	l-1.34-1.811l0,0l0.93-2l0.33-1.46l-0.17-0.87l0.559-0.489l3.541-0.17l1.39-1.391l2.432-1.051l2.431-0.039l1.18-0.41l1.92-1.779
	l1.08,0.92l0.301-0.32l-0.271-0.689l1.871-1.601l1.779-1.04l5.51-1.979l0.461-0.471l0.789-2.37l0.51-0.42l1,0.011l0.933,1.68
	l0.358-0.051l-0.25-2.189l1.5-2.76l1.171-0.561l1.141,1l1.539-0.439l1.51,0.101l3.109-1.83l3.131-2.7l1.721-0.819l0.859-1.17
	l0.27-1.58l0.861-1.08l0.479-2.46l1.149-2.05l0.101-0.971l-1.33-3.21l0.471-3.16l0.879-0.859l0.131-0.76l-0.33-5.311l0,0l1.33,0.09
	l-0.039,0.41l0.568,0.279l0.67-0.319l2.092,0.59l0.33,0.391l0.648-0.25l1.631,0.189l0.438,0.399l0.291-0.529l2.709-0.87l0.23-1.96
	l-0.631-0.271l0.641-0.78l0.461-0.159l0.439,0.5l1.438,0.391l0.562,0.829l0.34-0.159l0.539,0.45l0.051,0.789l1.58,2.181l0.971,4.05
	l0.431-0.1l0.219-1.61l0.74-0.67l-0.07-0.899l-0.648-1.069l0.648,0.22l0.111,1.721l-0.642,1.63l0.4,1.159l-0.16,1.37l0.189,0.8
	l1.2,0.852l-0.69,2.489l-0.75,0.05l-0.31,0.711l-1.271,4.05l-1.18,1.141l-1.109,1.59l0.039,0.489l-1.148,0.681l-0.329,0.811
	l-1.921,2.16l-3.881,3.04l-1.729,2.42l-1.021,2.47l-1.461,1.729l-1.408,3.979l-0.012,1.892l0.642,1.93l0.42,0.141l0.159,1.149
	l-0.58,1.37l-0.85,0.83l0.41-0.931l0.438,0.01l0.562-1.329l-0.062-0.591l-0.619-0.38l0.07,1.29l-1.051,1.789l-0.77,0.28l-0.341-0.38
	l-0.92,0.55l-1.621,2.721l-2.43,0.42l-0.188,1.899l1,0.69l0.147,0.59l0.701-0.34l-0.101,0.779l0.359,0.141l-0.25,0.709l0.58-0.079
	l0.891-1.261l1.58-0.34l0.601,0.649l0.819-0.78l-0.271-0.409l1.721-0.221l0.541,0.801l-0.739,2.5l-1.98,1.909l-0.471-0.029
	l0.08-0.79l-2.459,1.479l-0.621,1.689v1.25l-0.67,0.79l0.36,0.08l-0.061,0.74l1.399-0.051l2.029-2.79l0.801-0.38l0.449,0.17
	l-0.34,1.399l0.35-1.119l0.972-0.08l-2.211,2.63l-0.279,3.21l-2.041,4.141l-1.119,4.75l-0.899,0.96l-0.82,4.761l-0.449,0.899
	l-0.041,2.039l-1.439,2.341l-0.561,3.329l-0.729-0.539l-0.642,0.06l0.021-0.68l0.561-0.38l-0.121-0.961l-0.408,0.101l0.398-1.479
	l-0.52-0.3l-0.15-0.62l-0.81-0.239l0.189-1.029l-2.621-0.791l-1.039-1.229l0.74-0.46l0.34-2.04l0.93-1.699l-0.471-0.53l0.381-1.239
	l-0.41-1.431l-0.729-0.619l0.24-0.91l-0.789-0.29l-2.26,3.58l-1.091,0.38l0.011,0.25l0.979-0.431l-3.238,5.921l-2.262,0.13
	l-0.209-0.271l-1.061,0.421l-1.199-0.279l-0.92,0.819l-0.881,3.011l-1.062,1.129l-0.448,2.03l-1.091,1.38l-1.149,2.881l-1.42,0.779
	l-0.58,1.42l-1.619,1.311l0.108,1.601l-0.93-1.04l-0.91-0.391l-0.631-0.949l-1.049,0.039l-0.961-1.159l-1.799,0.391l-1.271,1.199
	h0.001V408.883z M782.397,312.402l-0.209,0.54l-2,1.199l-1.461-0.029l-0.56,0.38l-0.91-0.521l-0.479-0.761l1.721,0.562l1.398-0.101
	L782.397,312.402z"/>
<path id="MX-SLP" fill="#B2B2B2" stroke="#848484" stroke-miterlimit="10" d="M438.608,232.612l1.721,2.32l1.049-0.19l1.391,0.5
	l-0.479,1.57l0.688,0.26l-0.049,0.33l-1.201,1.57l0.291,0.81l1.789,1.71l-0.129,1.43l2.48,3.13l0.879,2.25l-0.209,4.369l0.969,1.461
	l0.111,0.89l-1.15,5.602l0.51,1.27l0.25,4.09l0.562,1.65l1.238,1.471l1.5,0.72l2.342-2.8l3.897,0.739l0,0l0.9,1.061l0.141,2.061
	l1.029,0.779l0.48,1.149l-0.33,3.631l0.221,2.979l0.199,0.69l1.09,0.92l4.201,1.37l3.27,0.26l2.199,0.73l0.65-0.431l-0.052-1.03
	l0.972-0.56l0.619,0.33l0.811,1.289l1.689,0.561l1.381,1.08l0.83,1.17l0.92,2.529l2.16,2.851l1.778-0.229l2,0.39l2.32-0.069
	l0.711-0.801l1.889,1.189l2.142-0.449l0.961,0.17l0,0l0.289,0.93l0.528,0.261l2.361-0.04l4.43,1.37l0.66,0.729l1.199,3.561
	l-2.529,0.05l-1.069,0.721l0.319,2.55l-0.26,0.67l-0.41,0.28l-2.17-0.26l-0.271,0.409l0.381,0.38h1.131l-0.58,0.53l0.35,0.26
	l-0.131,1.23l0.59,0.719l0.451-0.108l0.029,0.479l1.189,1.109l-1.699,0.79l-0.289,0.819l-1.062-0.061l0.05,0.7h-1.261l-0.199,0.859
	l0.892,3.311l1.33,0.221l0.139,3.34l0,0l-1.68-0.021l-1.58,1.84l-1.33,2.96l-0.92-1.31l-1.351,2.379l-1.079,0.041l-1.341-1.101
	l-1.141-2.399l-2.26,0.75l0,0l-0.882-0.261l-0.817-1.46l-3.221-3.351l-0.99-2.199l-0.48,0.279l-0.799-0.24l-0.561,0.37l-1.062,2.771
	l-0.58-0.359l-1.938,0.5l-2.49-0.25l-0.629-0.66l-0.59-1.89l-1.513-1l-1.1-0.041l-0.18,0.479l0.279,0.45l-1.539,0.38l0.59,0.57l0,0
	l-2.642,1.33l-1.608-0.04l-0.681-0.841l-0.391,0.541l-1.812,0.17l-1.698-2.131l-0.48,0.09l-0.27-0.689l-3.15-2l-3.889-1.279
	l-1.08,0.729l-0.621,1.83l0.15,1.12l-1.521,0.609l-2.75,0.029l-2.74-1.43l-4.971-3.721l-1.07,0.04l-1.229-0.75l-4.631-1.061
	l-1.26-0.729l-2.91-0.31l-1.16-0.671l0,0l1.93-3.97l0.35-0.961l-0.26-0.18l0.131-0.551l0.392,0.03l0.358-1.641l-1.381-3.859
	l3.301-7.301l0.189-1.649l-1.969-2.58l-0.711,0.051l-1.459,0.699l-4.451,4.61l-2.43,0.729l-2.08-0.051l-1.48-2.02l-0.92-2
	l-1.07-0.58l-2.309-0.34l-1.111-1.32l-4.18-2.529l-0.939-1l-0.25-1.511l0.199-1.261l1.26-3.989l-1.028-3.021l0.51-1.689
	l-0.619-0.811l0.869-1.67l0.66-0.199l2.319,0.93l2.939-0.58l0.52-1.439l0.853-1.03l2.279-0.84l3.561-2.13l3.48-5.141l4.737-1.59
	l1.103-1.54l1.18-2.96l-1.01-1.18l0.83-3.45l0.639-0.62l1.871-0.48l1.359-0.88l0.92-1.78l0.211-1.49l0.67-0.52l1.58,0.07l0.979-0.5
	l0.691-1.72l1.188-1l0.359-1.78L438.608,232.612z"/>
<path id="MX-SIN" fill="#B2B2B2" stroke="#848484" stroke-miterlimit="10" d="M317.378,283.992l0.42,0.061l0.54,0.939l-0.45,0.73
	L317.378,283.992z M256.258,218.592l1.17,1.35l0.5-0.19l0.271,0.31l0.01,0.9l0.59,1.13l-0.27,2.7l-0.48-0.01l-0.69-2.11l-1.08-1.17
	L256.258,218.592L256.258,218.592z M251.438,216.542l1.41,0.93l3.59,4.56l0.73,1.14l0.05,1.38l-0.39,0.16l-2.7-5.14l-2.82-2.59
	L251.438,216.542z M250.888,214.242l1.78,1.24l0.21,0.57l-1.66-0.8L250.888,214.242z M229.308,183.442l1.03,0.12l0,0l0.46,0.38
	l-0.13,1.01l-0.38,0.28l1.78,1.47l-0.35-1.14l0.771-0.64l-0.17-0.47l-0.31,0.28l-0.46-0.25l-0.92-1.8l-0.02-0.74l0,0l-0.15-1.56
	l0.29-0.19l0.24,1.87l0.39,0.17l0.5-0.94l0.79,0.91l0.13,0.78l0.48-0.08l-0.05,0.81l0.34,0.35l2.93-1.7l1.28-1.17l2-0.58l0.11-2.49
	l0.47-0.87l4.09-0.98l2.06-3.86l1.86-0.55l-0.29-2.49l3.12-3.88l0.31-1.78l0,0l4.88-0.22l0.68,0.38l0.12,2.9l0.62,0.24l1.22-0.26
	l1.05,2.33l-0.4,2.26l0.5,0.82l-0.5,2.01l0.33,1.09l1.41,0.91l0.07,1.88l3.11,5.021l1.22,4.68l3.81,1.13l3.19,0.31l2.36,0.7
	l2.89,4.88l0.59,3.23l2.14,2.79l0,0l0.06,0.67l0.73-0.16l0.16,0.73l-1.2,0.77l-1.73,2.21l0.6,0.72l0.47-0.08l0.07,0.68l-1.33,3.21
	l-0.08,5.12l-0.51,1.97l1,0.61l0.479,1.82l0.75,0.65l1.2,2.37l-0.33,1.45l1.2,0.95l0.53-0.44l2.3,0.23l0.9,2.61l1.32,0.3l1.21,4.47
	l0.57,0.2l0.57-0.42l0.21,0.25l0.81,4.12l0.98,1.41l0.59,1.95l0.83-0.17l0.7,0.49l0.69-0.55l1.33-0.19l2.79-2.13l0.67-1.04
	l4.04,1.18l1.45,0.96l0.9,1.37l1.08,0.26l0.15,1.07l1.74,2.271l0.08,2.2l1.03,0.94l-0.25,0.899l0.79,2.59l0.71,1.07l0.63,2.939
	l1.08,1.21l0.91,1.979l1.72,1.649l0.44,2.811l1.05,2.921l-0.27,0.93l0.74,1.74l1.22,1.33l0.13,2.26l0.6,1.279l2.04,0.141
	l0.851-0.601l0.6,0.07l2.12,2.18l0,0l-0.83,0.609l-0.56,3.41l-1.69,2.1l-0.33,1.021l0.45,1.301l1.31,1.301l0.21,1.33l0.4,0.359
	l0.23,2.039l-0.36,0.891l-3.46-0.57l-2.1-1.238l0,0l0.23-1.021l-1.5-1.63l0.25-0.59l0.74-0.351l-0.69-0.57l-0.54,0.701l0.521,1.899
	l0.54,0.51l-0.561,1.681l0.521,1.68l-0.37,0.561l-3.72-5.811l-2.97-2.869l-1.78-1.102l-4.22-5.17l-4.67-4.58l0.44-0.329l1.15,1.271
	l0.08-0.33l-1.45-1.149l-0.54,0.21l-0.19,0.56l-0.36-0.33l0.101-0.688l-0.7-0.5l-0.92-1.65l0.31-0.41l-1.25-1.959l-2.55-2.5
	l0.08-0.351l-1.39-1.181l-0.64-1.101l-2.56-1.938l0.41-0.5l-2.2-3.4l-0.23-1.22l-7.52-6.96l0.92,0.2l0.31-0.36l-0.45-0.3l0.11-0.8
	l-0.56-0.11l-0.18,0.49l-0.54,0.21l-3.82-3.04l-1.4-0.34l-5.04-3.96l-4.64-2.85l0.229-0.56l0.62,0.69l3.14,1.7l0.45,0.74l1,0.13
	l0.51,0.81l0.62-0.07l0.75,1.11l0.5-0.13l-0.54-0.59l0.07-0.7l0.71-0.22l0.04-0.4l-0.29-1.18l-1.479-2.02l-1.28,0.03l0.11,1.39
	l-1.12,0.24l-1.09-1.43l-0.6,0.53l-1.04-0.19l-0.18-0.93l-1.63-1.49l-2.101-0.87l-0.25-0.46l-0.58,0.4l-1.08-0.5l-0.79-1.061
	l0.07-1.149l-1.39-1.601l0.62-0.28l1.21,1.17l0.688-1.18l-0.6-0.45l-0.17-0.77l-0.29,0.03l0.08-0.85l0.47-0.521l-0.71-0.29
	l-0.04-0.5l0.52-0.64l0.08-0.78l-1.03-0.68l-0.28-1.88l-0.51-0.7l-1.55-1.02l-0.02,0.52l-0.88-0.16l-1.89-1.7l-0.31-0.82h-1.64
	l0.11-1.13l-1.25-0.58l-0.56,0.84l0.28,0.65l-0.351,0.58l-1.92-2.149l-5.4-2.7l0.52-0.63l-0.38-0.49l-1.32,0.35l-1.52-2.32
	l0.68-1.33l-0.44-0.63l-1.19,0.43l-0.4-0.96l-1.27-0.09l-0.41,0.229l0.24,0.601l-0.24,0.71l0.48,0.27l-0.68,1.09l-0.5,0.23
	l-0.06-0.59l-0.38-0.15l0.21-0.44l-0.812-0.31l-1.188,0.2l0.28,0.81l-0.81,0.23l-1.83-2.13l1.17-0.17l0.42-0.44l0.05-0.8l0.93,0.87
	l0.89-0.43l0.23-0.99l0.68,0.15l0.46-0.49l-0.34-1.31l-1.1-0.04l-1.02,0.64l-0.87,1.83l-1.57-0.48l-0.16,0.52l-0.63-0.11l-0.37-1.12
	l-1.72-1.57l-0.47,0.45l1.6,1.16l0.08,0.75l-1.6-1.01l-2.87-0.52l-0.18-0.33l2.04,0.271l0.07-1.96l-0.5-0.04l-1.61-1.32l-1.08,0.28
	l-0.37-0.69l0.17-2.66l0.24-0.09l-0.35-1.08l-0.45-0.16l-0.04-0.67l0.7-2.13l0.35,0.04l0.02-0.83l2.14-3.42l0.7-2.41l1.04-1.11
	l0.25,0.11l-0.21,0.99l-0.86,0.28l-0.59,2.71l0.42,0.55l0.31-0.17l0.38-0.98l-0.34-0.58l0.17-0.27l0.34,0.51l0.812-1.72
	L229.308,183.442L229.308,183.442z"/>
<path id="MX-SON" fill="#B2B2B2" stroke="#848484" stroke-miterlimit="10" d="M230.328,183.563l-1.03-0.12l0,0l0.1-0.52h0.48
	L230.328,183.563z M228.648,182.853l0.1-1.54l0.22,0.97L228.648,182.853z M194.608,154.342l0.63,0.87l-0.19,0.34l1.34,0.61
	l-0.29,0.39l-1.5-0.91L194.608,154.342z M152.538,101.532l0.479,1.56l-0.27,1.14l0.96,1.2l1.04,2.6l-0.42,0.37l-0.1,1.38l-1.54,3.96
	l-0.05,1.021l-0.74,0.63l-0.48-0.47l-0.77,0.11l-1.21-1.14l-1.34-0.07l-0.31-0.561l-0.521-0.01l-0.13-0.37l-2.03-1.13l1.66-1.22
	l0.59-0.87l-0.39-3.25l0.71-2.99l0.59-0.87l1.34,0.23l0.99-0.9L152.538,101.532z M93.618,28.572l0.83,0.13l-0.05,0.64l-1.46-0.41
	l-0.02-0.35h0.7V28.572z M89.888,26.763l1,0.479l0.71,1.44l1.33,0.95l0.53,1.09l-0.28,0.68l-0.8-0.65l-0.7,0.08l-1.04-0.54
	l-0.88-0.91l-0.39-0.99l0.16-1.44L89.888,26.763L89.888,26.763z M240.418,40.982l1.05,1.04l-0.94,1.28l0.52,1.91l1.64,2.84l0.24,1.6
	l-0.5,1.28l0.021,1.81l-1.57,0.07l-0.04,0.62l2.73,2.65l0.08,2.42l1.04,0.92l-0.67,1.61l0.11,0.81l1.1,1.47l-0.06,1.19l1.93,6.15
	l-0.28,1.81l-0.85,0.53l0.16,0.99l1.45,1.32v1.11l-1.271,2.57l-0.59,4.93l0.34,1l0.57,0.03l0.75,0.96l0.67,6.22l-0.01,2.6l-0.8,0.95
	l-0.16,0.9l0.25,5.67l-0.29,0.51l-1.38,0.68l-0.1,2.69l-1.49,1.27l0.46,2.54l-0.85,1.28l0.8,2.65l-1.48,2.62l-0.19,1.04l0.83,1.95
	l-0.42,2.9l1.55,1.81l2.25,0.86l-0.59,1.19l-0.93,0.1l-0.97,1.22l-1.15,0.12l-1.4,1.05l-0.51,0.03l-1.77-1.31l-0.771-0.14
	l-1.45,0.85l-2.53,0.49l-1.04,1.39l0.189,0.6l1.561,1.08l-0.59,2.75l0.39,0.7l1.83,0.74l2.09,2.98l0.38,1.66l-0.7,2.45l0.521,0.65
	l2.82,1.7l0.63,2.09l0.97,1.42l1.63,4.07l0.04,1.72l-1.25,3.14l0.47,3.45l-0.729,0.42l-0.021,0.46l3.54,1.84l2.021-0.62l1.77,0.39
	l0,0l-0.31,1.78l-3.12,3.88l0.29,2.49l-1.86,0.55l-2.06,3.86l-4.09,0.979l-0.47,0.87l-0.11,2.49l-2,0.58l-1.28,1.17l-2.93,1.7
	l-0.34-0.35l0.05-0.81l-0.48,0.08l-0.13-0.78l-0.79-0.91l-0.5,0.939l-0.39-0.17l-0.24-1.87l-0.29,0.19l0.15,1.56l0,0l-0.42,0.01
	l-0.24,0.54l-1.26-1.71l0.12-1.01l-1.35-2.45l-2.29-2.56l-1.45-1.02l-0.85-0.13l1.05,0.16l0.05-0.36l-0.4-0.93l-0.57,0.04
	l-0.36-0.75l-0.64,0.2l-0.07-0.57l-0.39-0.09l-0.73,1.06l0.42,0.75l-2.67-0.07l-0.5,0.65l-2.54-1l-1.19-1.04l-0.93-1.27l0.01-0.96
	l-1.03-2.8l-1.35-1.86l0.19-0.15l0.97,1.35l0.18-0.86l-0.63-0.42l0.25-0.38l-0.311-1.63l-1.729-1.38l-0.3,0.36l-0.42-0.41
	l-1.08,0.96l-1.03-0.68l-4.98-1.24l-3.05-3.03l-1.39-0.7l0.31-0.23l-0.41-0.92l0.08-1.29l-0.63-0.39l-0.52,0.37l-0.7-0.53
	l-0.15-1.27l-0.39-0.05l-0.4-0.75l0.25-2.061l-0.62-1.18l0.23-0.39l-0.81-0.79l0.11-0.77l1.37-0.98l-0.75-0.12l-0.24,0.79l0.17-1.54
	l0.69-0.35l-0.69-0.12l-0.29-1.11l0.48-0.37l-0.15-0.75l0.41-0.77l0.86,0.18l0.29-0.52l-0.99-0.79l-0.82-0.19l-0.54,0.48l-0.63-0.53
	l-3.87-0.91l-0.33-0.84l-1.64,0.87l0.56,0.91l-0.19,1.05l-1.22-0.44l-0.97-1.01l0.4-0.561l-0.58-0.149l-0.02-0.71l-1.34-0.27
	l-1.32,0.75l-1.49-1.36l-0.98-0.33l-0.88-1.28l-0.97-0.3l-0.69-0.84l-0.19-0.87l-1.06-1.24l-0.08-0.87l-0.69-0.9l-0.39,0.08
	l-0.46-1.58h-0.4l-1.16-1.13l-0.1-1.37l-0.87-0.75l-5.45-2.01l-0.16-1.14l-1.16-2.62l-4.01-3.66l-0.479-1.25l0.57-0.07l0.51-0.58
	l0.53,1.17l0.64-0.41l-0.021-0.85l-0.63-0.49l-0.53,0.38l-0.479-0.74l-0.271,0.21l-1.28-1.02l-1.21-0.29l-0.44-1.13l-0.97-0.77
	l-0.271-0.74l-1.91-0.55l0.56-0.73l-0.42-0.83l-0.05-1.32l-0.34-0.19l0.46-0.979l-0.47-1.12l-0.4-0.14l-0.05-0.62l-0.69-0.07
	l0.53-1.81l-0.62-1.81l-0.64-0.59l-1.32,0.01l-0.82,0.399l-1.66-0.87l-0.21-1.1l1-2.8l-0.3-0.57l-0.99-0.54l-0.16-1.18l-1-0.83
	l-1.67-2.84l-0.93-0.65l-0.65-1.94l-1.14-1.61l-0.33-1.6l-1.19-0.57l-0.64,0.18l-0.24-0.33l0.35-2.46l-0.62-1.47l0.13-3.46
	l-0.51-1.41l-1.95-1.89l-0.11-3.05l-0.97-2l-2.41-2.05l-2.54-4.66l-0.91-3.44l0.73-2.28l0.06-3.03l0.3,0.08l0.67-1.01l0.08-1.12
	l-0.5-2.75l-0.31,0.11l-0.19-0.79l-0.47,0.03l-2.31-1.36l-0.67-1.1l-0.82,0.73l-3.88-0.94l-0.24-0.35l-0.31,0.24l-2.58-0.49
	l-0.1-0.48l-0.56-0.27l-1.29-0.16l0.23-1.47l-0.57-1.59l0.06-0.83l-0.54-0.92l-1.189-0.97l-4.33-1.85l-0.13-0.59l-0.38,0.14
	l-0.22-0.52l-0.38,0.58l-0.79-0.55l-0.58,0.69l-0.18,0.62l0.35-0.07l0.21,0.52l-0.71,0.95l-0.71-0.08l-0.41,1.19l-2.85-0.1
	l-3.13-1.43l-1.44-1.55l-2.91-1.6l-0.44-0.59l-0.75-0.16l-2.41-2.33l-2.15-0.14l-1.28-0.58l-0.98-1.17h-0.82l0,0l-3.82-2.76
	l-0.92-0.13l-0.96-0.95l0.6-0.98l-0.24-0.98l0.42-2.67l-0.29-1.14l0.62-1.83l-1.4-1.99l1.81-2.43l0.05-1.34l0.47-0.48l0.6-2.05
	l1.34-0.01l0.47,0.4l0.85-0.51l0,0l93.65,34.22L240.418,40.982z"/>
<path id="MX-TAB" fill="#B2B2B2" stroke="#848484" stroke-miterlimit="10" d="M620.409,397.202l-4.062,1.46l-0.391,0.561
	l-1.891,0.16L620.409,397.202z M648.508,390.333l1.14,3.72l0.631,0.909l1.438,1l0.99,0.051l0.688,1.061l0.531-0.13l0.08-0.421
	l0.359,0.16l1.109,1.42l-0.181,1.971l0.451,0.32l1.08,2.59l1.219,1.83l3.472,2.329l0.868,1.431l1.312,0.66l1.5-0.15l2.211,1.12
	l1.289-0.64l1.68-0.11l0.301-0.72l-0.34-1.82l0.299-1.3l2.791-0.13l3.65,0.8l1.639,1.55l1.562,0.66l0.77,0.899l0.681-0.42
	l3.979,1.58l-0.021,1.64l0,0l-0.211,14.5l-10.559,0.181l0,0l0.529-1.029l0.76-0.28l-1.1-1.789l-1.312-0.37l-0.188-0.83l-4.341-1.2
	l0.75-2.66l-1.27-3.3l-2.562-1.26l-0.051-2.011l-1.059-1.359l-1.211,0.279l-1.189-0.181l-0.59,0.44l-0.561-0.301l0.118-0.59
	l-1.448-0.369l-0.711,1.84l-1.949,0.029l-1.771-0.479l0.039,0.439l-0.43-0.079l-0.119,0.369l0.41,1.75l-0.392,0.779l-3.291,1.19
	l-0.567,0.829l-5.83,4.271l-2.42,2.25l-1.91,0.84l-0.811-0.311l-0.66-0.87l-0.039-0.659l-1.211-1.939l-0.539-0.2l-0.441,0.35
	l-1.25,0.062l-0.358-0.33l0.301-1.87l-2.07-2.181l-0.381-0.931l0.141-0.579l1.42-2.12l0.351-1.689l-2.789,0.09l-0.771-0.351
	l-1.39-1.689l-2.141-0.85l-0.541,0.608l-1.658,0.28l-0.75,7.08l-0.592,1.16l-1.199,0.789l-1.391,1.871l-0.06,1.609l-2.531,3.17l0,0
	l-1.93-0.761l-0.379-2.2l0.379-1l-0.17-1.25l-1.109-3.079l-0.44-0.479l-2.51-0.971l-0.42-0.58l-1.16-0.039l-1.439-2.03l-1.391-0.391
	l-1.06-0.96l0.021-3.021l-0.562-1.47l-0.118-2.83l-0.511-0.4l0.859-0.869l0.92,0.51l0.24-0.289l-2.271-0.391l1.89-0.891l0,0
	l4.461-1.51l0.141,1.239l2.658-0.471l0.58-0.409l-0.289-0.971l0.711-0.409l1.039-0.141l0.229,0.439l0.75,0.061l1.31-0.24l0.602-0.63
	l-0.121-1.189l3.281-0.8l0.25,0.68l0.85-0.87l5.38-0.229l0.881,0.41l-0.67,0.561l0.069,0.891l0.799,0.04l0.802-0.44l0.069,0.28h0.67
	l0.38-0.561l-1.83-0.75l1.08-0.46l2.891,0.279l2.221-0.3l3.011-1.63l2.289-2.75L648.508,390.333L648.508,390.333z"/>
<path id="MX-TAM" fill="#B2B2B2" stroke="#848484" stroke-miterlimit="10" d="M517.147,239.792l-0.238,4.46l-0.281,0.09
	L517.147,239.792z M523.918,213.393l0.459,0.16l-2.84,6.97l-0.33-1.37l0.25-0.9l0.58-0.5l0.141-1.01L523.918,213.393z
	 M515.217,294.713l-2,1.399l-1.52-1.641l-0.42-1.141l-1.199-1.05l-1.353-0.17l-1.567-1.2l-1.15-0.39l-0.721-1.301l-2.539,0.29
	l-0.4,0.7l0.209,0.689l-1.979,0.438l-0.15-0.6l-0.409,0.18l-0.73-0.58l-1.109-0.219l-4.16,0.25l-1.78,1.01l0,0l-0.959-0.17
	l-2.142,0.438l-1.889-1.18l-0.711,0.79l-2.32,0.079l-2-0.39l-1.789,0.22l-2.149-2.85l-0.921-2.521l-0.829-1.17l-1.382-1.08
	l-1.688-0.561l-0.812-1.29l-0.618-0.329l-0.972,0.56l0.051,1.03l-0.649,0.43l-2.199-0.729l-3.26-0.26l-4.211-1.371l-1.09-0.93
	l-0.189-0.689l-0.229-2.979l0.34-3.63l-0.48-1.15l-1.028-0.779l-0.15-2.051l-0.891-1.06l0,0l0.42-0.771l-0.539-1.351l0.801-0.68
	l3.1,0.379l0.21-1.771l-0.39-2.84l0.33-0.959l1.469-1.771l0.67-2.811l2.312-1.229l2.551,0.68l0.709-0.141l1.75-0.971l0.34-1.51
	l0.359-0.101l2.25,0.451l-0.76-2.341l-1.369-0.78l-1.4-3.63l-1.76-2.09l0.859-6.77l-1.261-2.63l-1.84,0.09l-0.221-0.28l0.69-2.1
	l2-1.35l2.869-1.27l1.312-2.13l1.75,0.11l1.118-1.6l1.15-0.479l0.359-1.03l0.381-0.13l0.391,1.52l1.109-0.45l0.471-1.6l0.92-0.69
	l0.91-0.09l0.379-1.67l-0.67-0.36l-0.6-2.24l0.25-0.4l1.26-0.41l1.461-1.97l0.51,0.04l0.601,1.17l2.799,0.23l0.75-2.03l0.99-1.14
	l4.381-0.851l0.99-1.13l0.77-0.08l1.369-1.439l1.25-0.63l0.592-1.37l1.539-1.57l-0.02-0.52l-0.4-0.27l-2-0.63l-0.99-0.83l0.41-0.8
	l-0.688-1.57l0.209-2.07l0.471-0.77l-0.59-1.52l0.299-3.34l-0.799-1.02l-0.131-1.47l-0.689-0.44l-3.391,0.68l-1.06-0.15
	l-2.659,1.521l-0.962-0.54l-1.188-2.34l-0.65-0.59l-3.279-0.46l-0.381-0.66l-0.819-0.46l0.899-0.33l-0.76-1.34l0.359-0.72
	l-0.181-0.6l-0.629-0.05l-0.75,0.74l-0.69-0.09l-1.17-1.62l0.061-0.99l-1.42,0.12l-1.811-2.48l-1.25-4.14l-1.88-0.23l-0.852-1.9
	l-0.67-0.4l-0.879,0.38l-0.802-0.82l0.23-3.22l0.471-1.29l-0.521-0.78l-1.26-0.66l-1.459,0.05l-0.132-1.12l0.812-2.39l1.641-1.39
	l-0.42-3.19l-1.149-1.14l-0.24-1.38l0.221-2.46l-1.271-0.87l1.17-1.42l-0.049-0.88l-4-0.19l-0.601-0.45l0.351-1.07l-0.271-0.79
	l0.619-0.69l2.779-0.8l1.28-1.72l0.648-0.34l0,0l0.182,0.29h1.261l0.108,0.71l0.699,0.18l0.182-0.39h0.75l0.699,1.05l0.34-0.27
	l0.359,0.2l0.711,1.22l-0.381,1.72h0.75l0.44,0.53l-0.34,2.9l-0.99,1.99l1.039,0.14l-0.129,0.93l0.271,0.28l0.74-0.189l0.358,0.55
	l0.392,1.93l-0.351,2.01l0.31,0.46l-0.521,0.66l0.16,1.22l0.76,0.16l0.83,1.21l-0.289,0.39l0.459,0.73l1.062,0.31l0.42,1.5
	l0.77,0.271l1.021,2.08l-0.06,0.78l0.879,1.05l0.472,2.36l0.42,0.22l0.1,2.37l1.221,0.55l0.709,1.17l-0.469,1.26l0.969,1.02
	l0.812-0.42l0.799,0.55l0.871-0.21l0.48,0.13l0.049,0.6l0.75-0.11l0.74,0.58l0.358-0.28l1.933-0.01l0.329,0.89l1.289,0.26
	l1.521,2.03l2.381-0.11v0.58l0.312-0.11l0.18,0.44l0.5-0.48l0.938,0.46l-0.051,0.42l1.603-0.35l0.01,0.66l1.35,1.21l1.32-0.12
	l0.039,0.76l0.75,0.8l1.49,0.86l0.791,0.07l0.358,0.44l0.539-0.52l0.701,0.6l1.729-0.51l0.369,0.72l0.67,0.03l0.101-0.51l1.26-0.17
	l0.353,0.36l2.618-0.27l0.699,0.42l0.74-0.35l0.391,0.23l-0.149,0.48l0.83,0.24l2.891-0.01l1.109,1.91l0.45-0.13l0.5,0.98l0.39-0.27
	l0.729,1.35l1.9,0.57l-0.189,0.31l0.64,0.43l1.51-0.271l-0.109-1.67l0.699-0.59l0.48,0.32l0.18-0.351l0.932-0.04l0.068-0.51
	l1.621-0.27l1.369-0.05l0.35,0.28l-0.33,4.95l-0.979,3.8l-5.65,11.07l-0.791-0.25l1.811-3.11l-0.709-0.57l0.459-0.61l-0.41-0.59
	l-1.119,0.05l0.16-0.55l-1.541-0.16l-0.619-0.79l-1,1.08l0.73-0.13l0.689,1.12l0.219-0.19l0.33,1.1l-0.31,0.25l-0.239-0.53
	l-0.631,0.2l-0.38,0.77l0.351,0.19l0.311,1.24l-0.771,0.28l-0.3-1.37l-0.83,0.61l-0.36-0.59l-0.011-1.12l-1.788-0.24l0.061,0.44
	l-0.871,0.81l0.511,0.81l-0.31,0.94l-0.521,0.08l-0.89-0.6l-0.211,0.56l0.562,0.09l0.649,0.89l0.31-0.21l0.58,0.32l-0.189,0.78
	l0.891,0.66l-0.771,1.06l0.061,1.31l-1.34,2.92l0.4,0.45l0.739-0.03l0.4,0.74l0.859,0.2l-1.51,1.13l-0.23,0.99l-0.42,0.07
	l-0.051,0.69l0.602,0.36l0.129,0.78l-0.539,2.97l0.41,0.11l0.33,0.83l-0.871,4.23l-0.51,0.04l-0.279-0.54l0.129-1.43l-0.969,0.28
	l-0.871-0.65l0.23,0.93l-0.689,0.44l0.41,0.56l-0.301,1.03l0.92,2.21l0.381,0.18l-0.221,0.7l0.6-0.15l0.121-1.64l0.76-0.7l0.24,3.22
	l-0.682,6.41l-0.351,0.47l-0.229-0.08l0.262-0.56l-0.592-0.08l-0.049,0.5l0.891,0.43l0.039,7.06l0.881,0.46l0.039,0.41l-0.439,0.319
	l-0.35,2.07l0.18,0.659l0.351,0.091l0.1-1.98l-0.25,0.041l-0.08-0.711l0.531-0.311l-0.941,9.631l0.302,11.01l-0.211,3.59l-0.47,0.65
	l-0.381,1.92l-1.25,1.51l-0.979,2.08l-0.17,1.211l0.979,0.729l0.051,2.819l-0.391-0.028l-0.01,0.989l0.561,1.949l0.449-0.129
	l1.17,2.729L515.217,294.713L515.217,294.713z"/>
<path id="MX-TLA" fill="#B2B2B2" stroke="#848484" stroke-miterlimit="10" d="M505.909,362.683l2.059,0.381l0.611-0.24l1.549-1.83
	l0.49,0.07l0.711,1.06l4.1,3.41l-0.131,1.729l0.84,0.17l1.531-0.5l0.59,0.381l1.209,1.239l0.312,1.171l0.67,0.6l0.938,0.2
	l-0.278,1.149l-0.82,0.551l-2.68,0.51l-0.841-0.32l-1.399,2.33l-1.24,0.841l-0.771,0.05l-1.461-0.99l-0.567,0.041l-3.07,2.68
	l-0.86,0.141l-4.06-2.24l-1.18-1.311l-0.541-1.38l-1.32-1.38l-3.028-2.311l-1.16-0.37l-0.701,0.29l0,0l-0.529-0.601l-0.76,0.25
	l-0.961-1.83l0,0l5.012-1.709l1,0.229l2.09-0.28l1.449-1.21l0.82-1.471L505.909,362.683z"/>
<path id="MX-VER" fill="#98C717" stroke="#848484" stroke-miterlimit="10" d="M524.987,315.322l-0.729,2.05l-0.819,0.98
	l-0.121-1.511L524.987,315.322z M517.557,304.803l1.691,3.569l-0.479-0.141l-0.972-1.579L517.557,304.803z M519.647,305.843
	l1.899,2.41l5.33,4.899l-0.649,3.079l-1.709,4.141l-0.521,0.45l-0.183-2.061l1.771-3.43l-0.131-1.33l-1.75-1.649l-1.289-2
	l-2.83-3.131l-1.48-3.68l-0.471,0.119l0.08-0.8L519.647,305.843z M492.239,291.383l1.779-1.01l4.159-0.25l1.109,0.22l0.729,0.579
	l0.41-0.18l0.15,0.601l1.979-0.439l-0.209-0.689l0.4-0.7l2.539-0.289l0.721,1.299l1.15,0.391l1.567,1.2l1.353,0.17l1.199,1.05
	l0.42,1.141l1.52,1.641l2-1.399l0,0l0.631,5.369l1.66,4.541l-0.121,1.021l-0.397,0.22l0.618,1.351l0.431,3.261l0.83,0.93l0.08,1.109
	l1.85,3.261l1.51-0.341l0.521,0.75l-0.381,1.301l0.5,1.74l0.989,0.8l0.07,1.12l0.51,0.17l0.74,2.898l4.689,9.94l0.641,2.939
	l0.789,1.359l4.18,4.12l0.711,1.22l5.91,6.381l3.459,4.359l0.642,1.38l2.608,2.891l1.15,3.28l0.109,2l0.641,1.06l-0.1,1.11
	l1.52,2.13l-0.18,1.801l0.67,2.64l1.721,1.319l1.219,0.461l0.17,0.699l0.99,0.45l0.961,1.359l-0.311,0.649l0.211,0.899l0.76,0.66
	l2.41,0.34l0.299,2.521l0.67,1.771l0.861,0.931l3.52,1.689l0.01,0.72l-2.041-1.35l-0.969-0.08l-0.061,0.3l0.471,0.15v0.648
	l0.75,0.32l0.31,0.609l-0.119,0.239l-0.67-0.329l-0.341,0.29l0.17,0.5l1.171-0.131l-0.07-0.659l0.91-0.271l0.631,0.3l0.219-1.189
	l1.801,1.17l2.709,0.74l9.531,0.239l3,2.351l0.58,1.17l2.209,0.61l3.33,0.3l0.51,0.431l0.57,1.84l0.76,0.771l0.131,0.67l2.8,2.79
	l0.561,2.391l2.67,1.28l3.791-0.391l7.27-1.801l0,0l-1.891,0.891l2.271,0.391l-0.238,0.29l-0.92-0.511l-0.861,0.87l0.511,0.399
	l0.12,2.83l0.562,1.47l-0.021,3.021l1.062,0.961l1.391,0.39l1.439,2.03l1.159,0.039l0.42,0.58l2.511,0.971l0.438,0.479l1.111,3.079
	l0.17,1.25l-0.381,1l0.381,2.2l1.93,0.761l0,0l-3.721,2.891l-1.949,0.859l-0.94,1.13l0,0l-28.568-1.75l0.33-1.37l-0.641-0.569
	l0.01-0.99l-3.449-2.779l-3.36-4.409l0.229-1.131l1.49-0.66l0.18-0.68l-1.369-0.841l-0.42-0.06l-1.211,1.08l-3.66,0.92l-3.01,2.109
	l-2.869,0.16l-1.26,0.659l-1.961-0.58l-2.181-4.43l0.17-1.17l-0.34-0.721l0.73-0.681l0.988-2.579l0.811-1.11l0.221-1.25l-1-3.789
	l-0.521-0.44l-2.029-0.479l-1.149,0.189l-1.431-0.52l-2.469,0.789l-0.701-0.351l0.529-0.899l-1.379-0.09l-1.021-1.891l-1.391-0.811
	l-1.312,0.381l-1.959-1.561l-0.641-0.9l-0.6-2.739l0.579-1.271l-1-0.351l-1.149-1.149l-0.65,0.609l-0.049,0.86l0.5,0.739
	l-0.301,0.96l-1.17,2.181l0,0l-1.851-2.17l-2.58-0.82l-1.391,0.801l-0.959,1.05l-1.432-0.101l-1.859-3.13l0.17-0.75l-3.811-1.12
	l-0.851-0.72l-0.358-1.12v-2.979l1.858-2.41l0.07-0.55l-0.521-6.12l0.181-0.899l4.819,0.22l0.529-0.119l0.16-0.7l-0.109-1.29
	l-0.471-0.59l-2.93-1.271l-3.631-0.819l-1.439-0.99l-0.34-0.42l0.561-1.381l-1.381-2.979l0.24-0.699l0.57-0.24l0.979-2.63l0.67-0.87
	l0.341-0.97l-0.312-0.979l0.188-0.811l1.66-4.28l2.15-2.979l-0.07-0.51l-7.059-2.49l-0.82,0.671l-1.221,1.95l-1.609,1.398
	l-0.59-0.189l-0.861-1.779l-2.039,0.22l-0.68-0.55l-0.461-2.37l-0.059-4.01l1.17-0.761l1.608,0.92l1.5-2.479l-0.479-1.119
	l-2.221-1.221l-0.81-0.83l-0.16-0.851l0.359-0.829l-0.812-0.601l-0.869,0.189l-0.159-0.3l1.229-0.761l0.01-1.79l-2.028,0.32
	l-1.191-0.391l-0.27,1.02l-0.879,0.94l-0.08,0.84l-0.972,0.75l-0.698,2.561l0,0l-1.451-0.949l-0.83,0.358l-2.142,2.33l-1.6,0.73
	l-1.889,2.229l-2.48,1.149l-1.33,1.55l-0.5,0.221l-0.881-1.08l-1.17-2.59l0.25-2.08l0.58-1.301l0.33-3.66l0.65-0.539l0.311-0.859
	l2.389-2.16h0.461l1.34,1.39l1.449-0.229l0.25-0.63l-0.559-1.051l0.629-2.21l1.861-2.461l-2.531-3.42l-2.029-0.619l-0.861,0.891
	l-1.317-0.061l-1.26-0.66l-1.83-1.71l0.299-2.66l-0.299-0.75l-0.853-0.17l0,0l-0.129-3.351l-1.33-0.22l-0.891-3.311l0.211-0.851
	h1.26l-0.051-0.7l1.051,0.051l0.289-0.82l1.711-0.789l-1.188-1.11l-0.041-0.479l-0.449,0.118l-0.59-0.729l0.129-1.229l-0.351-0.261
	l0.58-0.53h-1.141l-0.379-0.379l0.27-0.42l2.181,0.26l0.409-0.271l0.25-0.67l-0.311-2.55l1.061-0.711l2.529-0.049l-1.199-3.562
	l-0.649-0.729l-4.439-1.38l-2.36,0.039l-0.529-0.26l-0.23-0.949L492.239,291.383L492.239,291.383z"/>
<path id="MX-YUC" fill="#B2B2B2" stroke="#848484" stroke-miterlimit="10" d="M771.887,315.183l0.33,5.301l-0.139,0.76l-0.881,0.87
	l-0.472,3.159l1.33,3.2l-0.1,0.971l-1.141,2.05l-0.488,2.45l-0.861,1.079l-0.26,1.58l-0.859,1.17l-1.721,0.82l-3.129,2.699
	l-3.111,1.841l-1.51-0.109l-1.529,0.438l-1.141-1l-1.17,0.562l-1.5,2.76l0.25,2.189l-0.359,0.051l-0.93-1.681l-1.01-0.01l-0.5,0.42
	l-0.791,2.369l-0.459,0.48l-5.512,1.979l-1.779,1.039l-1.881,1.601l0.271,0.689l-0.301,0.32l-1.08-0.92l-1.92,1.779l-1.189,0.41
	l-2.43,0.029l-2.43,1.051l-1.392,1.39l-3.541,0.171l-0.559,0.489l0.17,0.87l-0.32,1.449l-0.93,2.011l0,0l-0.441-0.46l-0.789-3.439
	l-3.159-3.58l-1.181-2.49l-3.85-2.1l-1.99-4.461l-1.82-1.159l-0.569-1.04l0.108-0.91l-1.028-1.76l-0.42-0.28l-0.789,0.729
	l-0.4,1.011l-0.479,0.09l-0.939-0.979l-1.121,0.34l-0.438-0.181l-0.972-2.01l-4.129-0.521l0.16-7.29l0,0l0.07-1.38l0.608-0.59
	l0.722-1.711l-0.15-0.52l-0.33,0.21l-1.111,3.431l-0.559,0.539l0.299-1.55l1.021-2.96l1.049-1.381l5.6-3.539l2.5-0.57l2.08-1.279
	l0.92-0.01l0.26-0.45l0.98-0.311l2.9-0.671l0.061,0.4l0.57-0.011l-0.121-0.289l0.65-0.36l4-0.729l16.6-2.2l5.031-1.909l0.559-1.399
	l5.5-1.17l3.23,0.26l1.33-0.37l2.26-1.47l2.09,0.47l-0.17,0.45l1.729,0.63l3.591,0.25l0.5,0.811l1.01,0.569l2.17,0.091l1.9,0.539
	l0.42-0.409l-3.779-0.931L771.887,315.183z"/>
<path id="MX-ZAC" fill="#B2B2B2" stroke="#848484" stroke-miterlimit="10" d="M391.198,219.242l0.02-1.63l0.63-0.53l5.401-1.07
	l9.398,0.61l2.541,1.71l2.5,0.97l1.959,1.66l2.159,3.07l1.472-0.41l1.16,0.32l0.618,3.56l2.83,0.02l0.92-0.88l2.271-0.51l2.959,0.37
	l1.25,0.82l1.92,3.76l1.371,1.3l2.09,0.81l1.439-0.37l0.18-0.78l0.75-0.32l2.121,0.47l0,0l-0.551,0.42l0,0l-0.812,0.439l-0.359,1.78
	l-1.188,1l-0.691,1.72l-0.979,0.5l-1.58-0.07l-0.67,0.52l-0.211,1.49l-0.92,1.78l-1.359,0.88l-1.871,0.48l-0.639,0.62l-0.83,3.45
	l1.01,1.18l-1.18,2.959l-1.103,1.541l-4.739,1.591l-3.479,5.14l-3.561,2.13l-2.279,0.84l-0.852,1.03l-0.521,1.439l-2.938,0.58
	l-2.32-0.931l-0.66,0.199l-0.869,1.671l0.619,0.811l-0.51,1.689l1.029,3.021l-1.261,3.989l-0.198,1.261l0.25,1.51l0.938,1l4.18,2.53
	l1.111,1.32l2.309,0.34l1.07,0.58l0.92,2l1.48,2.021l2.08,0.049l2.43-0.729l4.451-4.609l1.459-0.701l0.711-0.049l1.969,2.58
	l-0.188,1.648l-3.302,7.301l1.382,3.859l-0.359,1.641l-0.391-0.029l-0.132,0.549l0.261,0.181l-0.351,0.961l-1.93,3.97l0,0
	l-0.812,0.939l-0.969-0.63l0,0l-0.281-0.391l-2.09-0.75l-2.67-2.351l-2.129-1.141l-3.541-0.91l0,0l-1.141-2.039l-0.59-2.439
	l-4.439-2.631l-1.33-1.34l-0.77-1.391l-0.73,0.17l-0.391,1.261l-1.209,0.921l-3.47,1.969l-1.79,0.381l-1.07,0.729l-0.93,3.239
	l-3.33,4.591l-1.24,2.87l0.07,1.21l2.34,2.26l0,0l-0.09,2.21l0.65,1.851l2.78,1.779l-0.48,2.69l-0.96,1.31l-2.29,1.4l-3.58,2.91
	l-1.52-0.5l-1.37,0.489l-0.63,0.54l-0.33,2.021l-1.47,0.521l-0.11,0.369l-1.71-0.43l-1.34,0.26l-0.22,0.561l-0.88-0.069l-0.99,0.479
	l-2.9-1.609l-2.26,0.189l-0.94-0.49l-0.75-1.699l-0.75-0.811l-2.5-0.62l-0.17-0.5l4.04-1.811l1.17-1.12l0.101-1.02l-0.34-0.58
	l-0.67-0.141l-1.02,0.489l-0.93-0.539l-0.85-2.479l1.79-0.461l1.62-1.88l0.33-2.471l-0.18-1.789l2.92-2.07l1.77-1.729l3.28-1.682
	l1.26-0.199l0.74-0.689l1.19-2.91l0.7-3.471l-0.51-0.379l-2.15-0.141l-0.5-0.439l0.76-1.511l-0.41-0.86l-2.17-0.17l-1.88,0.73
	l-0.311,1.869l1.24,1.03l-2.39,1.89l-0.93,1.729l-0.899,0.44l-0.71-0.521l-1.271-0.199l-0.69,0.801l-1.93-0.021l-0.58-0.659
	l0.09-0.45l3.78-6.17l0.04-1.16l-0.6-1.93l-1.4-1.32l-1.42-0.51l-3.43,0.67l-0.63,0.57v7.039l-0.38,1.16l-1.16-0.17l-1.21-1.779
	l0.04-3.32l1.689-4.221l1.45-1.869l1.1-0.82l0.17-0.91l-1.81-1.01l-2.66,0.381l-2.16,1.529l-0.109,0.789l1.74,3.842l0.16,1.43
	l-1.03,1.181l-1.8,1.14l-0.27-0.49l1.05-3.239l-0.53-0.37l-3.1,1.17l-0.36,3.03l-1.35-0.34l-1.08,1.21l0,0l-0.72-0.43l-0.43-0.961
	l-0.2-2.771l0,0l1.16-3.05l1.01-1.51l3.21-1.42l0.25-0.631l0.16-5.551l-0.85-3.09l0.08-1.279l1.37-2.73l0.61-0.369l1.29-5.771
	l0.09-1.88l2.32-2.891l2.8-2.42l-0.89-4.271l0.45-1.2l-0.37-1.89l0.311-1.681l-0.37-1.65l-0.78-0.51l0.23-1.32l2.399-0.72l2.26-2.14
	l2.07-2.83l2.4-1.82l0.47-1.34l1.71-1.37l3.9,0.27l2.229,0.7l2.25-0.8l1.12,0.1l1,0.7l2.66,0.87l0.76-0.91l1.68,0.229l6.07-0.58
	l0.12-0.68l-0.5-0.37l0.02-0.41l0.97-0.521l-1.021-4l-1.21-0.45l0.811-4.9l-0.8-0.94l-1.53-0.71l-0.36-1.1l-0.75-0.34l-0.04-1.65
	L391.198,219.242z"/>
<image overflow="visible" width="1080" height="1080" xlink:href="../../../../Downloads/Diseo sin ttulo (5).png"  transform="matrix(0.1504 0 0 0.1504 613.3203 14.2451)">
</image>
</svg>
