<svg id="Capa_1" enable-background="new 0 0 510 510" height="512" viewBox="0 0 510 510" width="512" xmlns="http://www.w3.org/2000/svg" xmlns:xlink="http://www.w3.org/1999/xlink"><linearGradient id="SVGID_1_" gradientUnits="userSpaceOnUse" x1="0" x2="510" y1="255" y2="255"><stop offset="0" stop-color="#edf5ff"/><stop offset="1" stop-color="#c7e9ff"/></linearGradient><linearGradient id="lg1"><stop offset="0" stop-color="#7bacdf" stop-opacity="0"/><stop offset="1" stop-color="#7bacdf"/></linearGradient><linearGradient id="SVGID_2_" gradientUnits="userSpaceOnUse" x1="426.189" x2="207.004" xlink:href="#lg1" y1="422.311" y2="203.126"/><linearGradient id="SVGID_3_" gradientUnits="userSpaceOnUse" x1="375.049" x2="272.071" xlink:href="#lg1" y1="275.765" y2="172.787"/><linearGradient id="SVGID_4_" gradientUnits="userSpaceOnUse" x1="238.077" x2="272.605" y1="234.199" y2="268.726"><stop offset="0" stop-color="#ffe177"/><stop offset="1" stop-color="#fe9738"/></linearGradient><linearGradient id="lg2"><stop offset="0" stop-color="#fe9738" stop-opacity="0"/><stop offset="1" stop-color="#fe7701"/></linearGradient><linearGradient id="SVGID_5_" gradientUnits="userSpaceOnUse" x1="305.92" x2="249.241" xlink:href="#lg2" y1="263.08" y2="206.401"/><linearGradient id="SVGID_6_" gradientUnits="userSpaceOnUse" x1="255" x2="255" xlink:href="#lg2" y1="261.992" y2="285.473"/><linearGradient id="SVGID_7_" gradientUnits="userSpaceOnUse" x1="210.302" x2="150.305" xlink:href="#lg1" y1="259.74" y2="331.736"/><linearGradient id="SVGID_8_" gradientUnits="userSpaceOnUse" x1="85" x2="85" y1="54.943" y2="345.654"><stop offset="0" stop-color="#22b27f"/><stop offset="1" stop-color="#017b4e"/></linearGradient><linearGradient id="lg3"><stop offset="0" stop-color="#fe646f"/><stop offset="1" stop-color="#fb2b3a"/></linearGradient><linearGradient id="SVGID_9_" gradientUnits="userSpaceOnUse" x1="425" x2="425" xlink:href="#lg3" y1="319.173" y2="491.477"/><linearGradient id="lg4"><stop offset="0" stop-color="#c0272d" stop-opacity="0"/><stop offset="1" stop-color="#c0272d"/></linearGradient><linearGradient id="SVGID_10_" gradientUnits="userSpaceOnUse" x1="388.512" x2="360.512" xlink:href="#lg4" y1="402.652" y2="451.319"/><linearGradient id="SVGID_11_" gradientUnits="userSpaceOnUse" x1="399.244" x2="289.244" xlink:href="#lg4" y1="388.759" y2="386.259"/><linearGradient id="SVGID_12_" gradientUnits="userSpaceOnUse" x1="115.537" x2="54.254" y1="149.684" y2="210.967"><stop offset="0" stop-color="#017b4e" stop-opacity="0"/><stop offset=".6213" stop-color="#017147" stop-opacity=".621"/><stop offset="1" stop-color="#026841"/></linearGradient><linearGradient id="SVGID_13_" gradientUnits="userSpaceOnUse" x1="214.055" x2="311.662" xlink:href="#lg3" y1="84.687" y2="182.294"/><linearGradient id="SVGID_14_" gradientUnits="userSpaceOnUse" x1="307" x2="228.322" xlink:href="#lg3" y1="169.814" y2="91.136"/><linearGradient id="SVGID_15_" gradientUnits="userSpaceOnUse" x1="253.333" x2="280.699" y1="116.147" y2="143.513"><stop offset="0" stop-color="#ffe177"/><stop offset=".207" stop-color="#ffd970"/><stop offset=".5288" stop-color="#ffc35e"/><stop offset=".9233" stop-color="#fe9f3f"/><stop offset="1" stop-color="#fe9738"/></linearGradient><g><g><path d="m16.502 38.025h12.637c16.118 0 31.954 4.222 45.932 12.247l33.418 19.184h31.832c6.155 0 11.977-2.798 15.822-7.604 3.845-4.806 9.667-7.604 15.822-7.604h.119c5.374 0 10.527 2.135 14.327 5.935l22.506 22.506c3.213 3.213 5.019 7.572 5.019 12.116 0 4.544 1.805 8.903 5.019 12.116l4.109 4.109c6.892 6.892 18.539 4.829 22.644-4.012 2.884-6.212 9.11-10.185 15.958-10.185 6.769 0 12.939 3.884 15.865 9.988l26.634 55.551c2.484 5.181 7.72 8.477 13.465 8.477 8.247 0 14.933 6.686 14.933 14.933v73.47c0 29.147 7.428 57.813 21.583 83.292l.13.233c8.501 15.303 24.631 24.793 42.136 24.793 8.003 0 15.881-1.993 22.921-5.798l17.459-9.437c5.747-3.106 9.328-9.113 9.328-15.646 0-9.823 7.963-17.786 17.786-17.786h34.379c8.668 0 14.327 9.097 10.495 16.872l-16.604 64.383c-5.851 11.873-17.938 19.392-31.175 19.392-9.899 0-17.924 8.025-17.924 17.924 0 4.754-1.888 9.313-5.25 12.674l-12.747 12.747c-6.3 6.3-16.513 6.3-22.813 0-6.3-6.3-16.513-6.3-22.813 0-9.998 9.998-25.493 11.967-37.674 4.787l-136.518-80.47c-7.931-4.675-9.316-15.578-2.807-22.088 5.499-5.499 5.499-14.415 0-19.914l-38.95-38.95c-10.558-10.558-16.49-24.878-16.49-39.81 0-14.931-5.932-29.251-16.49-39.81l-30.761-30.761c-4.478-4.478-6.993-10.551-6.993-16.883 0-9.145-5.223-17.486-13.45-21.48l-17.039-8.271c-10.044-4.876-21.728 2.44-21.728 13.605 0 4.011 1.593 7.858 4.43 10.694l44.739 44.739c6.171 6.171 9.638 14.541 9.638 23.269 0 8.711-7.062 15.773-15.773 15.773-4.183 0-8.195-1.662-11.153-4.62l-58.846-58.846c-8.7-8.705-13.589-20.508-13.589-32.815v-106.518c0-9.113 7.388-16.501 16.502-16.501z" fill="url(#SVGID_1_)"/><path d="m475.432 416.4-55.146-55.146-.954.515c-7.041 3.806-14.918 5.798-22.921 5.798-17.506 0-33.635-9.491-42.136-24.793l-.13-.233c-11.725-21.106-18.819-44.401-20.914-68.342l-48.624-48.624c-7.128-7.678-17.304-12.488-28.607-12.488-21.558 0-39.034 17.476-39.034 39.034 0 11.303 4.81 21.479 12.488 28.608l186.682 186.682c3.273-.503 6.424-1.997 8.945-4.519l12.747-12.747c3.361-3.361 5.25-7.92 5.25-12.674 0-9.899 8.025-17.924 17.924-17.924 5.076.001 9.979-1.114 14.43-3.147z" fill="url(#SVGID_2_)"/><path d="m332.562 259.249v-73.47c0-8.247-6.686-14.933-14.933-14.933-5.745 0-10.981-3.296-13.465-8.477l-26.634-55.551c-2.927-6.104-9.096-9.988-15.865-9.988-6.848 0-13.074 3.974-15.958 10.185-4.105 8.841-15.752 10.904-22.644 4.012l-4.109-4.109c-3.213-3.213-5.019-7.572-5.019-12.116 0-1.702-.254-3.378-.739-4.978-8.086 11.264-12.862 25.064-12.862 39.988 0 25.971 14.42 60.453 35.689 79.61l106.035 106.038c-6.25-18.014-9.496-37.005-9.496-56.211z" fill="url(#SVGID_3_)"/><g><circle cx="255" cy="251.121" fill="url(#SVGID_4_)" r="39.034"/><path d="m241.202 214.604 50.315 50.315c1.622-4.291 2.517-8.939 2.517-13.798 0-21.558-17.476-39.034-39.034-39.034-4.859 0-9.507.895-13.798 2.517z" fill="url(#SVGID_5_)"/><path d="m216.052 253.592c1.276 20.406 18.221 36.564 38.948 36.564s37.672-16.158 38.948-36.564z" fill="url(#SVGID_6_)"/></g><path d="m37.805 38.438c-2.874-.271-5.765-.413-8.667-.413h-12.636c-9.114 0-16.502 7.388-16.502 16.501v106.518c0 12.307 4.889 24.109 13.591 32.812l58.846 58.846c2.958 2.958 6.97 4.62 11.153 4.62 8.711 0 15.773-7.062 15.773-15.773 0-8.728-3.467-17.098-9.638-23.269l-44.739-44.739c-2.836-2.836-4.43-6.683-4.43-10.694 0-11.165 11.684-18.481 21.728-13.605l17.039 8.271c8.227 3.994 13.45 12.335 13.45 21.48 0 6.333 2.516 12.406 6.993 16.883l30.761 30.761c10.558 10.558 16.49 24.878 16.49 39.81s5.932 29.251 16.49 39.81l38.95 38.95c5.499 5.499 5.499 14.415 0 19.914-6.51 6.51-5.124 17.413 2.807 22.088l136.518 80.47c12.181 7.18 27.676 5.211 37.674-4.787 6.3-6.3 16.513-6.3 22.813 0 6.3 6.3 16.513 6.3 22.813 0l12.747-12.747c2.053-2.053 3.549-4.557 4.408-7.275z" fill="url(#SVGID_7_)"/><path d="m72.437 252.702c2.958 2.958 6.97 4.62 11.153 4.62 8.711 0 15.773-7.062 15.773-15.773 0-8.728-3.467-17.098-9.638-23.269l-44.739-44.739c-2.836-2.836-4.43-6.683-4.43-10.694 0-11.165 11.684-18.481 21.728-13.605l17.039 8.271c8.227 3.994 13.45 12.335 13.45 21.48 0 6.333 2.516 12.406 6.993 16.883l30.761 30.761c10.558 10.558 16.49 24.878 16.49 39.81s5.932 29.251 16.49 39.81l6.493 6.493v-258.401c-5.415.527-10.425 3.211-13.858 7.502-3.845 4.806-9.667 7.604-15.822 7.604h-31.832l-33.418-19.184c-13.978-8.024-29.814-12.247-45.932-12.247h-12.636c-9.114.001-16.502 7.389-16.502 16.502v106.518c0 12.307 4.889 24.109 13.591 32.812z" fill="url(#SVGID_8_)"/><path d="m498.285 318.9h-34.379c-9.823 0-17.786 7.963-17.786 17.786 0 6.533-3.581 12.54-9.328 15.646l-17.459 9.437c-7.041 3.806-14.918 5.798-22.921 5.798-17.505 0-33.635-9.491-42.136-24.793l-.13-.233c-5.911-10.64-10.632-21.842-14.146-33.397v157.484l1.782 1.05c12.181 7.18 27.676 5.211 37.674-4.787 6.3-6.3 16.513-6.3 22.813 0 6.3 6.3 16.513 6.3 22.813 0l12.747-12.747c3.361-3.361 5.25-7.92 5.25-12.674 0-9.899 8.025-17.924 17.924-17.924 13.237 0 25.324-7.519 31.175-19.392l16.604-64.383c3.83-7.774-1.829-16.871-10.497-16.871z" fill="url(#SVGID_9_)"/><path d="m498.285 318.9h-34.379c-9.823 0-17.786 7.963-17.786 17.786 0 6.533-3.581 12.54-9.328 15.646l-17.459 9.437c-7.041 3.806-14.918 5.798-22.921 5.798-17.505 0-33.635-9.491-42.136-24.793l-.13-.233c-5.911-10.64-10.632-21.842-14.146-33.397v157.484l1.782 1.05c12.181 7.18 27.676 5.211 37.674-4.787 6.3-6.3 16.513-6.3 22.813 0 6.3 6.3 16.513 6.3 22.813 0l12.747-12.747c3.361-3.361 5.25-7.92 5.25-12.674 0-9.899 8.025-17.924 17.924-17.924 13.237 0 25.324-7.519 31.175-19.392l16.604-64.383c3.83-7.774-1.829-16.871-10.497-16.871z" fill="url(#SVGID_10_)"/><path d="m420.286 361.254-.954.515c-7.041 3.806-14.918 5.798-22.921 5.798-17.506 0-33.635-9.491-42.136-24.793l-.13-.233c-5.911-10.64-10.632-21.842-14.146-33.397v82.13l76.136 76.136c3.273-.503 6.424-1.997 8.945-4.519l12.747-12.747c3.361-3.361 5.25-7.92 5.25-12.674 0-9.899 8.025-17.924 17.924-17.924 5.076 0 9.979-1.114 14.43-3.147z" fill="url(#SVGID_11_)"/><path d="m37.805 38.438c-2.874-.271-5.765-.413-8.667-.413h-12.636c-9.114 0-16.502 7.388-16.502 16.501v106.518c0 12.307 4.889 24.109 13.591 32.812l58.846 58.846c2.958 2.958 6.97 4.62 11.153 4.62 8.711 0 15.773-7.062 15.773-15.773 0-8.728-3.467-17.098-9.638-23.269l-44.739-44.739c-2.836-2.836-4.43-6.683-4.43-10.694 0-11.165 11.684-18.481 21.728-13.605l17.039 8.271c8.227 3.994 13.45 12.335 13.45 21.48 0 6.333 2.516 12.406 6.993 16.883l30.761 30.761c10.558 10.558 16.49 24.878 16.49 39.81s5.932 29.251 16.49 39.81l6.493 6.493v-142.118z" fill="url(#SVGID_12_)"/></g><g><path d="m335.667 129.814c0 37.924-30.743 94-68.667 94s-68.667-56.076-68.667-94 30.743-68.667 68.667-68.667 68.667 30.743 68.667 68.667z" fill="url(#SVGID_13_)"/><circle cx="267" cy="129.814" fill="url(#SVGID_14_)" r="52.612"/><circle cx="267" cy="129.814" fill="url(#SVGID_15_)" r="34.945"/></g></g></svg>