<svg height="512" viewBox="0 0 64 64" width="512" xmlns="http://www.w3.org/2000/svg"><g id="Flat"><g id="Color_copy" data-name="Color copy"><path d="m31.846 3.126 3.4 6.887 7.6 1.105-5.5 5.361 1.299 7.57-6.799-3.574-6.798 3.574 1.298-7.57-5.5-5.361 7.601-1.105z" fill="#fffa48"/><path d="m54 10.271 2.163 4.383 4.837.703-3.5 3.411.826 4.818-4.326-2.275-4.326 2.275.826-4.818-3.5-3.411 4.837-.703z" fill="#fffa48"/><path d="m10 10.271 2.163 4.383 4.837.703-3.5 3.411.826 4.818-4.326-2.275-4.326 2.275.826-4.818-3.5-3.411 4.837-.703z" fill="#fffa48"/><path d="m55 45h-13l-2.927-.488.878 6.147 2.049 1.341v9h19v-10a6 6 0 0 0 -6-6z" fill="#00b4d8"/><path d="m61 58v3h-19v-9l-2.05-1.34-.88-6.15 2.93.49h3v7a6 6 0 0 0 6 6z" fill="#0096c7"/><path d="m56 52a0 0 0 0 1 0 0v7a0 0 0 0 1 0 0h-2a0 0 0 0 1 0 0v-5a2 2 0 0 1 2-2z" fill="#0096c7"/><path d="m51 58-2 3-2-3 2-9h1z" fill="#0096c7"/><path d="m32 35v10.12a4 4 0 0 0 2.732 3.793l5.219 1.746-.878-6.147-3.073-.512v-5a4 4 0 0 0 -4-4z" fill="#fcea42"/><path d="m40 27h10a6 6 0 0 1 6 6 0 0 0 0 1 0 0h-12a4 4 0 0 1 -4-4v-2a0 0 0 0 1 0 0z" fill="#00b4d8"/><path d="m56 33h-12a4 4 0 0 1 -4-4v-2h2.84c.587 1.73 2.68 3 5.16 3h6.92a4.8 4.8 0 0 1 1.08 3z" fill="#0096c7"/><path d="m53 46-3 3-3-3v-3h6z" fill="#fdc741"/><path d="m53 44.47a6.021 6.021 0 0 1 -3.37 1.5 5.98 5.98 0 0 0 2.44.96l-2.07 2.07-3-3v-3h6z" fill="#efad1b"/><path d="m56 55h5v6h-5z" fill="#fcea42"/><path d="m55 45-2 7-3-3 3-3v-1z" fill="#0096c7"/><path d="m45 45v7l5-3-3-3v-1z" fill="#0096c7"/><path d="m61 55v1a3 3 0 0 0 -3 3v2h-2v-6z" fill="#fdc741"/><path d="m39.95 50.66-5.22-1.75a3.991 3.991 0 0 1 -2.73-3.79v-10.12h.022a2.056 2.056 0 0 1 1.978 2.09v7.22a2.217 2.217 0 0 0 1.594 2.09 2 2 0 0 0 2.406-1.96v-.11l1.07.18z" fill="#fdc741"/><path d="m44 33h12a0 0 0 0 1 0 0v6a6 6 0 0 1 -6 6 6 6 0 0 1 -6-6v-6a0 0 0 0 1 0 0z" fill="#fcea42"/><path d="m47.88 34.88a2.993 2.993 0 0 0 -.88 2.12 6 6 0 0 0 6 6 5.764 5.764 0 0 0 1.67-.24 6 6 0 0 1 -10.67-3.76v-6h12v1h-6a2.993 2.993 0 0 0 -2.12.88z" fill="#fdc741"/><path d="m52 58-2 3-2-3 1-9h2z" fill="#ef5350"/><path d="m51 49h-1l1.125 1.125z" fill="#e53935"/><path d="m49.391 57.586a1.931 1.931 0 0 1 -.313-1.286l.789-7.1.133-.2h-1l-1 9 2 3 1.83-2.745a1.93 1.93 0 0 1 -2.439-.669z" fill="#e53935"/><path d="m55 45-1 6-4-2 3-3v-1z" fill="#48cae4"/><path d="m45 45 1 6 4-2-3-3v-1z" fill="#48cae4"/><circle cx="48" cy="38" fill="#0096c7" r="1"/><circle cx="52" cy="38" fill="#0096c7" r="1"/><path d="m9 45h13l2.927-.488-.878 6.147-2.049 1.341v9h-19v-10a6 6 0 0 1 6-6z" fill="#00b4d8"/><g fill="#0096c7"><path d="m9 45v8l5-4-3-3v-1z"/><path d="m19 45-2 7-3-3 3-3v-1z"/><path d="m22 57v4h-19v-10a6 6 0 0 1 6-6h1v4a8 8 0 0 0 8 8z"/><path d="m15 58-2 3-2-3 2-9h1z"/></g><path d="m16 58-2 3-2-3 1-9h2z" fill="#ef5350"/><path d="m15 49h-1l1.125 1.125z" fill="#e53935"/><path d="m13.391 57.586a1.931 1.931 0 0 1 -.313-1.286l.789-7.1.133-.2h-1l-1 9 2 3 1.83-2.745a1.93 1.93 0 0 1 -2.439-.669z" fill="#e53935"/><path d="m32 35v10.12a4 4 0 0 1 -2.732 3.793l-5.219 1.746.878-6.147 3.073-.512v-5a4 4 0 0 1 4-4z" fill="#fcea42"/><path d="m24.05 50.66 5.22-1.75a3.991 3.991 0 0 0 2.73-3.79v-10.12h-.022a2.056 2.056 0 0 0 -1.978 2.09v7.22a2.217 2.217 0 0 1 -1.594 2.09 2 2 0 0 1 -2.406-1.96v-.11l-1.07.18z" fill="#fdc741"/><path d="m14 27a6 6 0 0 1 6 6 0 0 0 0 1 0 0h-12a0 0 0 0 1 0 0 6 6 0 0 1 6-6z" fill="#00b4d8"/><path d="m11 46 3 3 3-3v-3h-6z" fill="#fdc741"/><path d="m17 44.47a6.021 6.021 0 0 1 -3.37 1.5 5.98 5.98 0 0 0 2.44.96l-2.07 2.07-3-3v-3h6z" fill="#efad1b"/><path d="m3 55h5v6h-5z" fill="#fcea42" transform="matrix(-1 0 0 -1 11 116)"/><path d="m9 45 1 6 4-2-3-3v-1z" fill="#48cae4"/><path d="m19 45-1 6-4-2 3-3v-1z" fill="#48cae4"/><path d="m3 55v1a3 3 0 0 1 3 3v2h2v-6z" fill="#fdc741"/><path d="m8 33h12a0 0 0 0 1 0 0v6a6 6 0 0 1 -6 6 6 6 0 0 1 -6-6v-6a0 0 0 0 1 0 0z" fill="#fcea42"/><path d="m11.88 34.88a2.993 2.993 0 0 0 -.88 2.12 6 6 0 0 0 6 6 5.764 5.764 0 0 0 1.67-.24 6 6 0 0 1 -10.67-3.76v-6h12v1h-6a2.993 2.993 0 0 0 -2.12.88z" fill="#fdc741"/><path d="m20 33h-12a5.944 5.944 0 0 1 1.76-4.24c.15-.15.31-.29.47-.43a4 4 0 0 0 3.77 2.67h5.65a5.8 5.8 0 0 1 .35 2z" fill="#0096c7"/><circle cx="16" cy="38" fill="#0096c7" r="1"/><circle cx="12" cy="38" fill="#0096c7" r="1"/><path d="m31.846 3.126-.882 5.053a5 5 0 0 0 7.186 5.321l4.7-2.381-5.5 5.361 1.3 7.57-6.8-3.574-6.8 3.574 1.3-7.57-5.5-5.361 7.6-1.105z" fill="#fcea42"/><path d="m54 10.271-.691 3.9a3 3 0 0 0 4.5 3.1l3.191-1.914-3.5 3.411.826 4.818-4.326-2.275-4.326 2.275.826-4.818-3.5-3.411 4.837-.7z" fill="#fcea42"/><path d="m10 10.271-.691 3.9a3 3 0 0 0 4.5 3.1l3.191-1.914-3.5 3.411.826 4.818-4.326-2.275-4.326 2.275.826-4.818-3.5-3.411 4.837-.7z" fill="#fcea42"/><path d="m32 32a1 1 0 0 1 -1-1v-3a1 1 0 0 1 2 0v3a1 1 0 0 1 -1 1z" fill="#fffa48"/><path d="m35 33a1 1 0 0 1 -.707-1.707l2-2a1 1 0 0 1 1.414 1.414l-2 2a1 1 0 0 1 -.707.293z" fill="#fffa48"/><path d="m29 33a1 1 0 0 1 -.707-.293l-2-2a1 1 0 0 1 1.414-1.414l2 2a1 1 0 0 1 -.707 1.707z" fill="#fffa48"/></g></g></svg>